/* XPM */
static char * collectible_xpm[] = {
"32 32 219 2",
"  	c None",
". 	c #847865",
"+ 	c #684C3F",
"@ 	c #60260E",
"# 	c #733712",
"$ 	c #733916",
"% 	c #72360E",
"& 	c #5F1F00",
"* 	c #66493C",
"= 	c #837765",
"- 	c #8B7A65",
"; 	c #81593F",
"> 	c #81583E",
", 	c #8C7A65",
"' 	c #928975",
") 	c #928A75",
"! 	c #CBBCA1",
"~ 	c #A07B66",
"{ 	c #92421B",
"] 	c #B05B21",
"^ 	c #B05D27",
"/ 	c #9F7B66",
"( 	c #D7C1A1",
"_ 	c #C9926B",
": 	c #C8916A",
"< 	c #E0D7B8",
"[ 	c #DFD7B8",
"} 	c #AEA38B",
"| 	c #D6C7AA",
"1 	c #D9C0A2",
"2 	c #BB8669",
"3 	c #B15624",
"4 	c #C16326",
"5 	c #C1652B",
"6 	c #B15522",
"7 	c #C47447",
"8 	c #BB8567",
"9 	c #C9A78C",
"0 	c #E7CDAC",
"a 	c #F2D1AC",
"b 	c #EAB88F",
"c 	c #E5B58E",
"d 	c #E7CCAB",
"e 	c #E9D9B9",
"f 	c #E8D9B9",
"g 	c #ADA189",
"h 	c #D5C7AA",
"i 	c #C3A68C",
"j 	c #BC8769",
"k 	c #C57548",
"l 	c #C2652B",
"m 	c #B25623",
"n 	c #B25725",
"o 	c #BC8669",
"p 	c #DAC0A2",
"q 	c #E8CDAB",
"r 	c #E7B890",
"s 	c #EBB990",
"t 	c #F3D2AC",
"u 	c #E8CDAC",
"v 	c #CAA98D",
"w 	c #B68D75",
"x 	c #918975",
"y 	c #DFD6B8",
"z 	c #E8D8B9",
"A 	c #B78E76",
"B 	c #A84D21",
"C 	c #C96A28",
"D 	c #CA6C2E",
"E 	c #B68E76",
"F 	c #F6DDB9",
"G 	c #E5A87C",
"H 	c #8D2603",
"I 	c #A64919",
"J 	c #C96926",
"K 	c #C96C2E",
"L 	c #A74C20",
"M 	c #C96A27",
"N 	c #B58E77",
"O 	c #E8D9BA",
"P 	c #F6DEB9",
"Q 	c #E5A87B",
"R 	c #B48C75",
"S 	c #8A1900",
"T 	c #E5D8B8",
"U 	c #AD8B74",
"V 	c #913C0E",
"W 	c #AE5614",
"X 	c #AF5A1F",
"Y 	c #AB8B74",
"Z 	c #E6D8B8",
"` 	c #780800",
" .	c #E2D8B9",
"..	c #9D8A75",
"+.	c #60270E",
"@.	c #703103",
"#.	c #723815",
"$.	c #9B8A75",
"%.	c #E6A87C",
"&.	c #4F0000",
"*.	c #EAE1C1",
"=.	c #B9B197",
"-.	c #908773",
";.	c #B8B097",
">.	c #F7DEBA",
",.	c #E6A97C",
"'.	c #F7EFCD",
").	c #E9E1C1",
"!.	c #E5A77B",
"~.	c #7E7463",
"{.	c #C3BA9F",
"].	c #E0D8B9",
"^.	c #DFD8B9",
"/.	c #D7C0A0",
"(.	c #C89169",
"_.	c #DFD6B7",
":.	c #54473C",
"<.	c #7E7563",
"[.	c #8B7964",
"}.	c #815940",
"|.	c #564A3E",
"1.	c #807765",
"2.	c #8C7B66",
"3.	c #835C42",
"4.	c #835B41",
"5.	c #7D7462",
"6.	c #51453A",
"7.	c #55493D",
"8.	c #938A75",
"9.	c #7F7665",
"0.	c #D6C0A0",
"a.	c #C2BA9F",
"b.	c #7D7463",
"c.	c #7D7665",
"d.	c #847765",
"e.	c #E0C2A1",
"f.	c #D4946C",
"g.	c #DBA27B",
"h.	c #F3DDBA",
"i.	c #E8E0C0",
"j.	c #B7B097",
"k.	c #CABCA0",
"l.	c #837664",
"m.	c #E6D8B9",
"n.	c #E3D9B9",
"o.	c #694D3F",
"p.	c #B27E66",
"q.	c #AD6445",
"r.	c #C49577",
"s.	c #EDDBBA",
"t.	c #F8EFCD",
"u.	c #694C3E",
"v.	c #AE8D76",
"w.	c #9E8B76",
"x.	c #61270E",
"y.	c #92411B",
"z.	c #9B4014",
"A.	c #8A3516",
"B.	c #A87D66",
"C.	c #DFC3A3",
"D.	c #F7DFBA",
"E.	c #F8E0BB",
"F.	c #91411B",
"G.	c #96421C",
"H.	c #722C12",
"I.	c #521608",
"J.	c #743812",
"K.	c #B25A1F",
"L.	c #813B15",
"M.	c #8C5B41",
"N.	c #CA916A",
"O.	c #AF5B21",
"P.	c #733812",
"Q.	c #B85C21",
"R.	c #953D0F",
"S.	c #791A00",
"T.	c #7D4219",
"U.	c #BF6A2C",
"V.	c #C26A2D",
"W.	c #8A451B",
"X.	c #7B3B17",
"Y.	c #A95B26",
"Z.	c #C06A2D",
"`.	c #BE692C",
" +	c #7D4119",
".+	c #8D2D14",
"++	c #C86C2E",
"@+	c #9E4A1F",
"#+	c #7C2E10",
"$+	c #7A360C",
"%+	c #7B3B0A",
"&+	c #7B3C0A",
"*+	c #CA6D2E",
"=+	c #8E2E15",
"-+	c #7D4016",
";+	c #BE6827",
">+	c #CA6A29",
",+	c #A74C1E",
"'+	c #8A3416",
")+	c #7F3B18",
"!+	c #BE6727",
"~+	c #C96B29",
"{+	c #8D2D15",
"]+	c #9E451D",
"^+	c #B35E27",
"/+	c #AF5D27",
"(+	c #D3946C",
"_+	c #CA6C2C",
":+	c #D3956C",
"<+	c #8D2C11",
"[+	c #D7C2A2",
"}+	c #E0C3A3",
"|+	c #B38168",
"1+	c #E1C4A3",
"2+	c #8C2808",
"3+	c #C3BBA0",
"4+	c #7B2003",
"5+	c #723712",
"6+	c #531203",
"                                                                ",
"                                                                ",
"                                                                ",
"              . + @ # $ @ @ $ % & * = - ; > , ' )               ",
"              ! ~ { ] ^ { { ^ ] { / ! ( _ : ( < [               ",
"          } | 1 2 3 4 5 3 6 5 7 8 9 0 a b c d e f | g           ",
"          h i j k l m n l 4 n o p q r s t u v w w i |           ",
"      x y z A B C D B B D C B E z F G G F z E H H A z y x       ",
"      ' < e w I J K L L K M L N O P Q Q P f R S S w e < '       ",
"      ' y T U V W X V V X W V Y T F G G F Z Y ` ` U Z y '       ",
"      ' y  ...+.@.#.+.+.#.@.+.$. .F %.%.F  .$.&.&... .y '       ",
"      ' < *.=.' -.' ' ' ' -.' ;.*.>.,.,.>.*.;.-.-.=.*.< '       ",
"      -.y '.*.< [ [ < < [ [ < ).'.F !.!.F '.).[ [ *.'.y -.      ",
"      ~.{.y ].[ y y < < y y [ ^.y /.(.: /._.[ _._.< _.{.~.      ",
"      :.<.-.' ' ' ' ' ' ' ' ' ' -.[.}.}.[.-.' ' ' ' -.<.:.      ",
"      |.1.2.3.4.[.5.6.6.5.[.4.3.2.1.|.7.1.' 8.' ' 8.' 1.7.      ",
"      9.{.0.(.: 0.a.b.b.a.0.: (.0.a.c.b.a._.< _._.< _.{.~.      ",
"      d.! e.f.g.h.i.j.j.i.h.g.f.e.k.d.l.k.m.n.< < n.m.! l.      ",
"      o.~ p.q.r.s.t.*.*.t.s.r.q.p.~ o.u.~ v.w.' ' w.v.~ u.      ",
"      x.y.z.A.B.C.D.E.E.D.C.B.A.z.F.x.x.F.G.H.I.I.H.G.y.x.      ",
"      J.] K.L.M.N.!.,.,.!.N.M.L.K.O.J.P.O.Q.R.S.S.R.Q.] P.      ",
"      T.U.V.W.X.Y.U.Z.Z.U.Y.X.W.V.`.T. +`.D B .+.+B D U. +      ",
"      T.U.++@+#+$+%+&+&+%+$+#+@+++U.T.T.U.*+B =+=+B *+U.T.      ",
"      -+;+>+,+'+)+#.+.+.#.)+'+,+>+!+-+-+!+~+,+{+{+,+~+;+-+      ",
"       +U.K B ]+^+/+F.F./+^+]+B K `. + +`.D B .+.+B D U. +      ",
"      3._ (+q.B _+D B B D _+B q.(+_ 3.3._ :+q.<+<+q.:+_ 3.      ",
"      2.[+}+|+B >+D B B D >+B |+}+( 2.2.( 1+|+2+2+|+1+[+2.      ",
"      1.3+! ~ { ] ^ { { ^ ] { ~ ! {.1.1.{.! ~ 4+4+~ ! 3+1.      ",
"      |.9.d.o.+.5+#.+.+.#.5++.o.d.9.|.|.9.. o.6+6+o.. 9.|.      ",
"                                                                ",
"                                                                ",
"                                                                "};
