/* XPM */
static char * collectible_xpm[] = {
"32 32 488 2",
"  	c #94DF00",
". 	c #B9E189",
"+ 	c #F1E7EF",
"@ 	c #F0E7ED",
"# 	c #B4E17C",
"$ 	c #B3E17A",
"% 	c #EEE7EA",
"& 	c #EFE7EB",
"* 	c #B4E17D",
"= 	c #B6E180",
"- 	c #F3E7F1",
"; 	c #BBE18C",
"> 	c #95DF00",
", 	c #96DF00",
"' 	c #B5E17D",
") 	c #B6E181",
"! 	c #F2E7EF",
"~ 	c #BCE28E",
"{ 	c #97DF00",
"] 	c #9ADF00",
"^ 	c #9CDF13",
"/ 	c #C9E3A7",
"( 	c #E3E6D8",
"_ 	c #E2E5D6",
": 	c #C4E29F",
"< 	c #CCE4AE",
"[ 	c #F5E8F3",
"} 	c #F5E8F4",
"| 	c #CDE4B1",
"1 	c #C7E3A4",
"2 	c #E5E6DA",
"3 	c #777B77",
"4 	c #596A53",
"5 	c #4E6A3E",
"6 	c #446929",
"7 	c #4D693D",
"8 	c #586A52",
"9 	c #656B67",
"0 	c #646B66",
"a 	c #566F56",
"b 	c #F6E8F4",
"c 	c #E6E6DD",
"d 	c #CCE3AD",
"e 	c #B5E27B",
"f 	c #A2E044",
"g 	c #C6E2A1",
"h 	c #E1E5D3",
"i 	c #F5E8F2",
"j 	c #FFEAFF",
"k 	c #F6E8F5",
"l 	c #C8E3A7",
"m 	c #3B4430",
"n 	c #000000",
"o 	c #001119",
"p 	c #F4E7F2",
"q 	c #E4E6D9",
"r 	c #CAE3AA",
"s 	c #E7E6DE",
"t 	c #E2E6D5",
"u 	c #B5E27C",
"v 	c #98DF00",
"w 	c #E3E5D7",
"x 	c #C5E2A0",
"y 	c #D2C8D9",
"z 	c #D0BFD1",
"A 	c #C9BEC9",
"B 	c #B5BCA8",
"C 	c #8FB85A",
"D 	c #613F28",
"E 	c #621912",
"F 	c #5F1912",
"G 	c #5D1711",
"H 	c #5C1913",
"I 	c #5C1914",
"J 	c #5D1A14",
"K 	c #5F1A14",
"L 	c #621B15",
"M 	c #5D2A28",
"N 	c #CFC0D1",
"O 	c #C9BECA",
"P 	c #B6BFAB",
"Q 	c #B0E16E",
"R 	c #B1E171",
"S 	c #E1E6D3",
"T 	c #E7E6DF",
"U 	c #CCE3AE",
"V 	c #BCE28F",
"W 	c #E1E5D5",
"X 	c #326668",
"Y 	c #F04438",
"Z 	c #FF4437",
"` 	c #FF4537",
" .	c #FF4538",
"..	c #FF4638",
"+.	c #F94639",
"@.	c #1F2A10",
"#.	c #9BE011",
"$.	c #9CE01E",
"%.	c #B2E174",
"&.	c #CBE3AC",
"*.	c #F4E7F3",
"=.	c #B4E17B",
"-.	c #E1E5D4",
";.	c #2F6568",
">.	c #EC4235",
",.	c #FF4235",
"'.	c #FF4335",
").	c #FF4336",
"!.	c #FF4337",
"~.	c #F54538",
"{.	c #172A00",
"].	c #91DE00",
"^.	c #9CE021",
"/.	c #B2E173",
"(.	c #CBE3AB",
"_.	c #EFE7EA",
":.	c #A7C39B",
"<.	c #2F6567",
"[.	c #D03E35",
"}.	c #E7382A",
"|.	c #E43528",
"1.	c #E23628",
"2.	c #E13629",
"3.	c #FC3F31",
"4.	c #FE4032",
"5.	c #FD4133",
"6.	c #FD4134",
"7.	c #FC4235",
"8.	c #FD4236",
"9.	c #FD4336",
"0.	c #FE4336",
"a.	c #FE4437",
"b.	c #E13C31",
"c.	c #E23E32",
"d.	c #E43E32",
"e.	c #E73D32",
"f.	c #D74037",
"g.	c #18655E",
"h.	c #1F6762",
"i.	c #B3C1B3",
"j.	c #B9E187",
"k.	c #C5E29F",
"l.	c #A0B882",
"m.	c #E73728",
"n.	c #FF3D2D",
"o.	c #FF3B2B",
"p.	c #FF3A29",
"q.	c #FF3A2A",
"r.	c #FD3B2C",
"s.	c #FC3D2E",
"t.	c #FB3E30",
"u.	c #FA3F32",
"v.	c #FA4033",
"w.	c #FA4134",
"x.	c #FB4235",
"y.	c #F24438",
"z.	c #B3B7B0",
"A.	c #E6E6DC",
"B.	c #CAE3A9",
"C.	c #B8E186",
"D.	c #B2E176",
"E.	c #C4E29E",
"F.	c #B8BBAF",
"G.	c #E53323",
"H.	c #FF3927",
"I.	c #FF3623",
"J.	c #FB3220",
"K.	c #F93421",
"L.	c #FB3624",
"M.	c #FA3828",
"N.	c #F93B2C",
"O.	c #F93D2E",
"P.	c #F93E30",
"Q.	c #F93F31",
"R.	c #F94033",
"S.	c #FA4235",
"T.	c #EE4337",
"U.	c #9DB58A",
"V.	c #E5E6DB",
"W.	c #F2E7F0",
"X.	c #B0E173",
"Y.	c #C3E29C",
"Z.	c #E32F1C",
"`.	c #FF331F",
" +	c #FB2C17",
".+	c #F4270B",
"++	c #F2270D",
"@+	c #FA2F18",
"#+	c #F93320",
"$+	c #F93625",
"%+	c #F83929",
"&+	c #F83B2C",
"*+	c #F83C2E",
"=+	c #F83E30",
"-+	c #F83F31",
";+	c #F94134",
">+	c #EC4337",
",+	c #8FB371",
"'+	c #B1E16F",
")+	c #E0E6D0",
"!+	c #ECE6E6",
"~+	c #DFE5D1",
"{+	c #C4E29D",
"]+	c #E12913",
"^+	c #FF2D12",
"/+	c #F92500",
"(+	c #EE1D00",
"_+	c #F92B11",
":+	c #F9301B",
"<+	c #F93422",
"[+	c #F93726",
"}+	c #F93929",
"|+	c #F93C2E",
"1+	c #F93F32",
"2+	c #FB4134",
"3+	c #EC4236",
"4+	c #8FB370",
"5+	c #9BE010",
"6+	c #FFE9FF",
"7+	c #7E7B80",
"8+	c #3C4431",
"9+	c #683725",
"0+	c #F23C2C",
"a+	c #ED3625",
"b+	c #F82D17",
"c+	c #F72000",
"d+	c #F8B1AD",
"e+	c #FFFFFF",
"f+	c #ED574D",
"g+	c #F31B00",
"h+	c #F62608",
"i+	c #FB2D14",
"j+	c #FB301A",
"k+	c #FB331F",
"l+	c #FA3B2C",
"m+	c #F93E31",
"n+	c #FC4033",
"o+	c #FE4134",
"p+	c #FE4235",
"q+	c #ED4337",
"r+	c #F14438",
"s+	c #7B402D",
"t+	c #2B4302",
"u+	c #587236",
"v+	c #B9E188",
"w+	c #726A75",
"x+	c #6A0000",
"y+	c #FF3A28",
"z+	c #FF3420",
"A+	c #FA2A0C",
"B+	c #F61B00",
"C+	c #F8BAB6",
"D+	c #ED574E",
"E+	c #F30A00",
"F+	c #F81900",
"G+	c #FD2100",
"H+	c #FD2500",
"I+	c #FD2807",
"J+	c #FD2D13",
"K+	c #FC311C",
"L+	c #FB3929",
"M+	c #FA3C2D",
"N+	c #FB3D2F",
"O+	c #FF4032",
"P+	c #FF4133",
"Q+	c #FF4334",
"R+	c #831C13",
"S+	c #5F625A",
"T+	c #6B0000",
"U+	c #FF3825",
"V+	c #FF321C",
"W+	c #FD280D",
"X+	c #FB1D00",
"Y+	c #F98C87",
"Z+	c #FEDFDE",
"`+	c #FEDEDC",
" @	c #F53E2E",
".@	c #FA0000",
"+@	c #D30000",
"@@	c #9C0000",
"#@	c #9B0000",
"$@	c #D10000",
"%@	c #FE2D12",
"&@	c #FD331F",
"*@	c #FC3726",
"=@	c #FC3A2A",
"-@	c #FD3C2C",
";@	c #FE3D2E",
">@	c #FF3E2F",
",@	c #FF3F30",
"'@	c #FF4031",
")@	c #841609",
"!@	c #62625F",
"~@	c #6C686D",
"{@	c #6E0000",
"]@	c #FF3520",
"^@	c #FF3016",
"/@	c #FF2905",
"(@	c #FF2000",
"_@	c #FC0D00",
":@	c #F60000",
"<@	c #FF0000",
"[@	c #9F0000",
"}@	c #920000",
"|@	c #FF1B00",
"1@	c #FF2802",
"2@	c #FE2F18",
"3@	c #FE3420",
"4@	c #FE3725",
"5@	c #FF3827",
"6@	c #FF3928",
"7@	c #FF3C2B",
"8@	c #850700",
"9@	c #586349",
"0@	c #ECE7E6",
"a@	c #63665D",
"b@	c #FF311A",
"c@	c #FF2C10",
"d@	c #FF2300",
"e@	c #FF1A00",
"f@	c #FE0D00",
"g@	c #F80000",
"h@	c #F90000",
"i@	c #FC0000",
"j@	c #FE0000",
"k@	c #A00000",
"l@	c #910000",
"m@	c #FE1300",
"n@	c #FF2100",
"o@	c #FF2907",
"p@	c #FF2E13",
"q@	c #FF3018",
"r@	c #FF3521",
"s@	c #FF3724",
"t@	c #840000",
"u@	c #4C6130",
"v@	c #566443",
"w@	c #E70000",
"x@	c #FF0400",
"y@	c #87A5A5",
"z@	c #A1BBBB",
"A@	c #FF1100",
"B@	c #F21F00",
"C@	c #426011",
"D@	c #B1E175",
"E@	c #E80000",
"F@	c #91A8A9",
"G@	c #AABEBF",
"H@	c #F30000",
"I@	c #436111",
"J@	c #EEE7E9",
"K@	c #64665E",
"L@	c #325F5F",
"M@	c #BCCCCC",
"N@	c #B8CACB",
"O@	c #9E1901",
"P@	c #A30000",
"Q@	c #A20000",
"R@	c #A10000",
"S@	c #9E0000",
"T@	c #92A3A4",
"U@	c #ABB9BA",
"V@	c #9A0000",
"W@	c #990000",
"X@	c #517272",
"Y@	c #4B602F",
"Z@	c #8D9B9B",
"`@	c #00393D",
" #	c #929E9E",
".#	c #AAB5B5",
"+#	c #A4B0B0",
"@#	c #5A654B",
"##	c #BBE18D",
"$#	c #B3E178",
"%#	c #556343",
"&#	c #8A9494",
"*#	c #002022",
"=#	c #8A9393",
"-#	c #A2A9AA",
";#	c #9FA8A8",
">#	c #62625E",
",#	c #F3E7F2",
"'#	c #E0E4D3",
")#	c #C7BCC5",
"!#	c #F8FDFE",
"~#	c #B6BABA",
"{#	c #A9ACAC",
"]#	c #89AE58",
"^#	c #CAE2AB",
"/#	c #A6BA8E",
"(#	c #F9FCFC",
"_#	c #B5B7B7",
":#	c #A7AAAA",
"<#	c #AFB3A3",
"[#	c #B8E187",
"}#	c #F9FBFB",
"|#	c #E7E8E8",
"1#	c #ABADAD",
"2#	c #ACADAD",
"3#	c #B5B6B6",
"4#	c #E5E6E6",
"5#	c #B3B3AC",
"6#	c #C9E3A9",
"7#	c #B8BBAE",
"8#	c #F9FAFA",
"9#	c #9DB083",
"0#	c #B0E171",
"a#	c #BABCB0",
"b#	c #242B1C",
"c#	c #1E2A0E",
"d#	c #ECEDED",
"e#	c #F8F9F9",
"f#	c #302C30",
"g#	c #2F2C2E",
"h#	c #91B16A",
"i#	c #DFE6D0",
"j#	c #EBE6E5",
"k#	c #C3E29D",
"l#	c #E3E5D8",
"m#	c #DEE6CE",
"n#	c #1F2A0F",
"o#	c #9BE00D",
"p#	c #B0E16F",
"q#	c #F2E8EF",
"r#	c #CAE4AC",
"s#	c #252B1D",
"t#	c #322D32",
"u#	c #F9E9FA",
"v#	c #E0E6D1",
"w#	c #B1E170",
"x#	c #9BE013",
"y#	c #FDE9FF",
"z#	c #F4E8F1",
"A#	c #E2E5D5",
"B#	c #C7E2A4",
"C#	c #B5B6AE",
"D#	c #C2B5C3",
"E#	c #C7B6C7",
"F#	c #A2B18E",
"G#	c #8F928D",
"H#	c #909090",
"I#	c #8F8F8F",
"J#	c #8E8E8E",
"K#	c #8D8E8E",
"L#	c #8D8D8D",
"M#	c #9BB082",
"N#	c #B3B3AB",
"O#	c #C3B5C3",
"P#	c #C4B7C4",
"Q#	c #D2E4B9",
"R#	c #9CE01A",
"S#	c #DCE5CA",
"T#	c #AEE169",
"U#	c #E0E6D2",
"V#	c #E1E6D2",
"W#	c #2B4301",
"X#	c #B1E072",
"Y#	c #9DE023",
"Z#	c #F2E8EE",
"`#	c #CBE4AD",
" $	c #ADE164",
".$	c #9AE000",
"+$	c #9DE024",
"@$	c #B3E177",
"#$	c #BCE18E",
"$$	c #9DE028",
"%$	c #5A7438",
"&$	c #63665C",
"*$	c #63645E",
"=$	c #515E42",
"-$	c #58624B",
";$	c #696269",
">$	c #6E676E",
",$	c #5C654F",
"'$	c #4A602C",
")$	c #42610A",
"!$	c #9EE030",
"~$	c #B4E279",
"{$	c #B4E278",
"]$	c #B3E176",
"^$	c #EBE6E4",
"/$	c #B2E178",
"($	c #8DDE00",
"_$	c #92DE00",
":$	c #B7E182",
"<$	c #F1E7EE",
"[$	c #F4E8F4",
"}$	c #BBE28D",
"  . + @ # $ % & * = + - ; > , >   . + @ # $ % & ' ) ! - ~ { ] ^ ",
". / ( _ : < [ } | 1 2 3 4 5 6 6 7 8 9 0 a < [ b | 1 2 c d e f ] ",
"+ ( g : h i j j k ( l m n n n n n n n n o p j j k q / r s t u v ",
"@ w x < i j y z A B C D E F G H I J K L M N z z O P Q R S T U V ",
"' x W [ j j X n n n n Y Z Z `  . . . ...+.n n n n @.#.$.%.&.s *.",
"=.x -.[ j j ;.n n n n >.,.'.).).!.Z Z Z ~.n n n n {.].^./.(.c - ",
"_.W : :.<.;.[.}.|.1.2.3.4.5.6.7.7.8.9.0.a.b.c.d.e.f.g.h.i.c r j.",
"% -.k.l.n n m.n.o.p.q.r.s.t.u.v.w.w.x.x.9.0.Z Z ` y.n n z.A.B.C.",
"D.E.W F.n n G.H.I.J.K.L.M.N.O.P.Q.R.R.w.S.7.0.).Z T.n n U.B.V.W.",
"X.Y.-.F.n n Z.`. +.+++@+#+$+%+&+*+=+-+R.;+w.7.0.).>+n n ,+'+)+W.",
"!+~+{+l.n n ]+^+/+(+(+/+_+:+<+[+}+N.|+P.1+R.2+7.,.3+n n 4+5+'+C.",
"6+7+8+9+0+a+b+c+d+e+e+f+g+h+i+j+k+L.M.l+O.m+u.n+o+p+q+r+s+t+u+v+",
"6+w+n x+y+z+A+B+C+e+e+D+E+F+G+H+I+J+K+L.L+M+N+3.4.O+P+Q+R+n S+- ",
"6+w+n T+U+V+W+X+Y+Z+`+ @.@+@@@@@@@#@$@%@&@*@=@-@;@>@,@'@)@n !@p ",
"6+~@n {@]@^@/@(@_@:@:@<@<@[@n n n n }@|@1@2@3@4@5@6@p.7@8@n 9@~ ",
"0@a@n {@b@c@d@e@f@g@h@i@j@k@n n n n l@<@m@n@o@p@q@b@r@s@t@n u@> ",
"X.v@n n n n w@x@<@<@<@n n y@e+e+e+e+z@n n j@A@|@(@B@n n n n C@, ",
"D@v@n n n n E@<@<@<@<@n n F@e+e+e+e+G@n n <@<@<@<@H@n n n n I@, ",
"J@K@n L@M@N@O@P@Q@R@S@n n T@e+e+e+e+U@n n V@R@R@P@W@N@M@X@n Y@> ",
"J@K@n Z@e+e+`@n n n n n n  #e+e+e+e+.#n n n n n n n e+e++#n @###",
"$#%#n &#e+e+*#n n n n n n =#e+e+e+e+-#n n n n n n n e+e+;#n >#,#",
"$#E.'#)#n n !#e+e+e+e+e+e+~#n n n n {#e+e+e+e+e+e+e+n n ]#^#c - ",
"% -.E./#n n (#e+e+e+e+e+e+_#n n n n :#e+e+e+e+e+e+e+n n <#c r [#",
"J@-.: l.n n }#e+e+e+e+e+e+|#1#2#3#3#4#e+e+e+e+e+e+e+n n 5#A.6#C.",
"D@{+W 7#n n 8#e+e+e+e+e+e+e+e+e+e+e+e+e+e+e+e+e+e+e+n n 9#B.V.! ",
"0#Y.-.a#b#c#d#e+e+e+e+e+e+e+e+e+e+e+e+e+e+e+e+e+e+e#f#g#h#'+i#! ",
"j#~+k#x l#m#n#n n n n e+e+e+e+e+e+e+e+e+e+n n n n f#j W.j.o#p#C.",
"6+q#r#k.l#q s#n n n n e+e+e+e+e+e+e+e+e+e+n n n n t#u#v#w#x#w#[#",
"6+y#z#A#B#l C#D#E#D#F#G#H#I#J#K#K#J#I#H#L#M#N#O#E#P#Q#R R#R v#- ",
"6+y#z#S#T#p#U#,#,#V#R W#n n n n n n n n n X#S p p S %.Y#/.(.c - ",
"6+Z#`# $.$+$@$~ #$@$$$%$&$*$=$-$;$>$,$'$)$!$~$V V {$!$]$S s &.; ",
"6+^$/$($_$> { { { , > ; - ! :$= @ <$C._$> { v v v { , V [$*.}$> "};
