/* XPM */
static char * exit_xpm[] = {
"16 16 4 1",
" 	c #2A0503",
".	c #8E2F15",
"+	c #FFF6D3",
"@	c #DA7A34",
"                ",
" .............. ",
" .         +++. ",
" .         +++. ",
" .     @++ +++. ",
" .     @++ +++. ",
" .     @++ +++. ",
" . .@@ @++ +++. ",
" . .@@ @++ +++. ",
" . .@@ @++ +++. ",
" . .@@ @++ +++. ",
" . .@@ @++ +++. ",
" . .@@ @@@ @@@. ",
" .            . ",
" .............. ",
"                "};
