/* XPM */
static char * ground_xpm[] = {
"32 32 232 2",
"  	c #94DF00",
". 	c #B9E189",
"+ 	c #F1E7EF",
"@ 	c #F0E7ED",
"# 	c #B4E17C",
"$ 	c #B3E17A",
"% 	c #EEE7EA",
"& 	c #EFE7EB",
"* 	c #B4E17D",
"= 	c #B6E180",
"- 	c #F3E7F1",
"; 	c #BBE18C",
"> 	c #95DF00",
", 	c #96DF00",
"' 	c #B5E17D",
") 	c #B6E181",
"! 	c #F2E7EF",
"~ 	c #BCE28E",
"{ 	c #97DF00",
"] 	c #9ADF00",
"^ 	c #9CDF13",
"/ 	c #C9E3A7",
"( 	c #E3E6D8",
"_ 	c #E2E5D6",
": 	c #C4E29F",
"< 	c #CCE4AE",
"[ 	c #F5E8F3",
"} 	c #F5E8F4",
"| 	c #CDE4B1",
"1 	c #C7E3A4",
"2 	c #E5E6DA",
"3 	c #E6E6DC",
"4 	c #CBE3AC",
"5 	c #B3E276",
"6 	c #9FE030",
"7 	c #9EE02D",
"8 	c #B2E173",
"9 	c #C9E3A8",
"0 	c #E4E6D9",
"a 	c #E2E5D7",
"b 	c #C5E29F",
"c 	c #F6E8F4",
"d 	c #E6E6DD",
"e 	c #CCE3AD",
"f 	c #B5E27B",
"g 	c #A2E044",
"h 	c #C6E2A1",
"i 	c #E1E5D3",
"j 	c #F5E8F2",
"k 	c #FFEAFF",
"l 	c #F6E8F5",
"m 	c #C8E3A7",
"n 	c #CAE3A9",
"o 	c #E1E6D3",
"p 	c #B2E174",
"q 	c #B2E172",
"r 	c #E0E6D0",
"s 	c #E4E6DA",
"t 	c #C6E2A3",
"u 	c #C5E2A0",
"v 	c #E1E5D4",
"w 	c #CAE3AA",
"x 	c #E7E6DE",
"y 	c #E2E6D5",
"z 	c #B5E27C",
"A 	c #98DF00",
"B 	c #E3E5D7",
"C 	c #F7E8F6",
"D 	c #DEE6CE",
"E 	c #B0E16D",
"F 	c #B1E170",
"G 	c #E0E6D2",
"H 	c #C9E3A9",
"I 	c #CCE4AF",
"J 	c #B0E16E",
"K 	c #B1E171",
"L 	c #E7E6DF",
"M 	c #CCE3AE",
"N 	c #BCE28F",
"O 	c #E1E5D5",
"P 	c #CFE4B4",
"Q 	c #AFE16C",
"R 	c #9BE009",
"S 	c #9BE017",
"T 	c #E5E6DC",
"U 	c #C8E3A5",
"V 	c #B0E16C",
"W 	c #9BE011",
"X 	c #9CE01E",
"Y 	c #F4E7F3",
"Z 	c #B4E17B",
"` 	c #DDE5CD",
" .	c #AFE16B",
"..	c #90DE00",
"+.	c #91DE00",
"@.	c #9CE01B",
"#.	c #E5E6DB",
"$.	c #C6E2A2",
"%.	c #9CE021",
"&.	c #CBE3AB",
"*.	c #EFE7EA",
"=.	c #CEE4B3",
"-.	c #AFE16A",
";.	c #9AE000",
">.	c #E0E6D1",
",.	c #C5E2A1",
"'.	c #CDE4B0",
").	c #9AE003",
"!.	c #92DE00",
"~.	c #E1E6D2",
"{.	c #B9E187",
"].	c #DDE5CC",
"^.	c #AEE169",
"/.	c #8FDE00",
"(.	c #9CE01A",
"_.	c #C8E3A6",
":.	c #C7E3A5",
"<.	c #E3E5D8",
"[.	c #9CE01D",
"}.	c #B8E186",
"|.	c #B2E176",
"1.	c #C4E29E",
"2.	c #AEE167",
"3.	c #99E000",
"4.	c #E4E6D8",
"5.	c #C7E2A4",
"6.	c #F2E7F0",
"7.	c #B0E173",
"8.	c #C3E29C",
"9.	c #AEE168",
"0.	c #B0E16F",
"a.	c #D1E4B8",
"b.	c #F9E9FA",
"c.	c #B8E185",
"d.	c #B1E16F",
"e.	c #F2E7F1",
"f.	c #B9E188",
"g.	c #ECE6E6",
"h.	c #DFE5D1",
"i.	c #C4E29D",
"j.	c #DEE6CD",
"k.	c #DFE6CF",
"l.	c #F9E9F9",
"m.	c #DFE6D0",
"n.	c #9BE010",
"o.	c #FFE9FF",
"p.	c #F3E8F0",
"q.	c #CBE4AC",
"r.	c #D0E4B6",
"s.	c #F8E9F8",
"t.	c #CEE4B2",
"u.	c #9BE016",
"v.	c #FEE9FF",
"w.	c #F4E8F2",
"x.	c #D0E4B7",
"y.	c #9CE018",
"z.	c #DBE5C9",
"A.	c #ACE163",
"B.	c #F7E8F7",
"C.	c #F4E7F2",
"D.	c #CBE4AD",
"E.	c #ABE15F",
"F.	c #B7E184",
"G.	c #9AE004",
"H.	c #CFE4B5",
"I.	c #B7E185",
"J.	c #9BE015",
"K.	c #ECE7E6",
"L.	c #E0E5D2",
"M.	c #ABE160",
"N.	c #E2E6D4",
"O.	c #B4E278",
"P.	c #DCE5CA",
"Q.	c #ACE162",
"R.	c #ADE164",
"S.	c #DEE5CD",
"T.	c #C7E2A5",
"U.	c #ADE166",
"V.	c #DEE5CE",
"W.	c #CBE3AD",
"X.	c #B4E177",
"Y.	c #9FE035",
"Z.	c #B1E175",
"`.	c #9BE006",
" +	c #B3E177",
".+	c #9FE034",
"++	c #EEE7E9",
"@+	c #E2E5D5",
"#+	c #F8E8F7",
"$+	c #CAE3AB",
"%+	c #BBE18D",
"&+	c #B3E178",
"*+	c #9BE013",
"=+	c #9CE019",
"-+	c #9CE020",
";+	c #F3E7F2",
">+	c #F7E8F5",
",+	c #9CE01C",
"'+	c #C7E2A3",
")+	c #9DE023",
"!+	c #9BE00D",
"~+	c #B8E187",
"{+	c #9CE01F",
"]+	c #B1E172",
"^+	c #B0E171",
"/+	c #9BE00A",
"(+	c #D1E4B9",
"_+	c #FAE9FA",
":+	c #EBE6E5",
"<+	c #C3E29D",
"[+	c #F2E8EF",
"}+	c #CAE4AC",
"|+	c #D1E4B7",
"1+	c #FDE9FF",
"2+	c #F4E8F1",
"3+	c #D2E4B9",
"4+	c #F2E8EE",
"5+	c #9DE024",
"6+	c #BCE18E",
"7+	c #9DE028",
"8+	c #D0E4B5",
"9+	c #9DE025",
"0+	c #9EE030",
"a+	c #B4E279",
"b+	c #B3E176",
"c+	c #EBE6E4",
"d+	c #B2E178",
"e+	c #8DDE00",
"f+	c #B7E182",
"g+	c #F1E7EE",
"h+	c #F4E8F4",
"i+	c #BBE28D",
"  . + @ # $ % & * = + - ; > , >   . + @ # $ % & ' ) ! - ~ { ] ^ ",
". / ( _ : < [ } | 1 2 3 4 5 6 7 8 9 0 a b < [ c | 1 2 d e f g ] ",
"+ ( h : i j k k l ( m n d o p q r s t u v [ k k l 0 / w x y z A ",
"@ B u < j k k k C D E F G d w H 2 ( h I [ k k k C D J K o L M N ",
"' u O [ k k k l P Q R S K w T 2 U t _ [ k k k l P V W X p 4 x Y ",
"Z u v [ k k l `  ...+.@.K n #.s 1 $._ } k k l `  ...+.%.8 &.d - ",
"*.O : I c l =.-.;.+.+.q >.#./ U ( a ,.'.l l =.-.).+.!.8 ~.d w {.",
"% v b u _ ].^./...(.q w 3 #._.:.<.B h h B ` -./.+.[.8 &.d 3 n }.",
"|.1.O _ t 2.3.....K >.3 H / s 4.t $.a B 5.^.3...+.K G d w n #.6.",
"7.8.v _ t 9.3.;.0.a.b.6.c. .D <.t $.B B 5.-.3.;.d.a.b.e.f.d.r 6.",
"g.h.i.u B j.-.Q k.l.k ! c.3.9.5.B a $.t <.D  .E m.l.k 6.{.n.d.}.",
"o.p.q.b B <._.r.s.k l.k.Q 3.9.=.C l t.t <.0 _.r.l.k l.r F u.K f.",
"o.v.w.O $.5.0 s.k s.x.E ;. .D C k k C <.5._.s s.k l.a.F y.q ~.- ",
"o.v.w.z.A.2.D + + k.E ;.J / s B.k k C ` 9.-.k.+ ! m.d.y.8 4 x C.",
"o.p.D.E., A -.F.c.E G.0.r #.m H.B.C =.2.A 3. .I.}.0.J.q o x e ~ ",
"K.L.1.M., { 9.-.3.;.0.n 3 >.E  .D <.5.2.A A -. .;.R K &.x N.O.> ",
"7.8.v P.Q.R.` S.-.E r 3 w F ).;.-.T.<.` U.U.S.V. .J >.d W.X.Y., ",
"Z.i.v O u | l C H.m #.3 w F `.;.-.5.<.B $.t.C B.H.9 3 d 4  +.+, ",
"++v 1.1.v } k k B.s 9 n 3 >.J Q D <.$.,.@+c k k #+2 n $+x N.O.> ",
"++v i.D.[ k k k B.k.0.F >.T 9 _.0 B ,.I [ k k k #+k.F q o x e %+",
"&+1.v [ k k k C H.J *+y.F H #.0 5.$.@+} k k k C H.J =+-+8 4 x ;+",
"&+1.v [ k k >+S.Q ..+.,+K H 2 0 '+h @+c k k C S.E +.!.)+8 &.d - ",
"% v 1.I c l P  .R +.!.q >.#.m :.<.a ,.'.l C P  .!++.!.8 ~.d w ~+",
"++v : u a ` -./.+.[.q w 3 #._.1 B a h $.B S.-...+.{+8 &.d 3 H }.",
"Z.i.O _ t 9.3...+.K >.3 H / 0 ( t $.a B 5.^.;...+.]+G d w n #.! ",
"^+8.v _ '+^.;.G.d.a.b.6.c. .D <.$.$.B <.:. .;./+F (+_+- f.d.m.! ",
":+h.<+u <.D Q J m.l.k 6.c.3.9.t a _ $.'+0 k.E J r b.k 6.{.!+0.}.",
"o.[+}+b <.0 / |+l.k l.m.Q 3.2.t.l l t.5.0 2 9 a.b.k b.>.F *+F ~+",
"o.1+2+@+5.m #.b.k b.a.J ;.-.S.C k k C 0 m H 3 _+k _+3+K (.K >.- ",
"o.1+2+P.^.0.G ;+;+~.K n.E _.<.C k k B.k.d.q o C.C.o p )+8 &.d - ",
"o.4+D.R.;.5+ +~ 6+ +7+q >.2 :.=.C C 8+d.9+0+a+N N O.0+b+o x 4 ; ",
"o.c+d+e+!.> { { { , > ; - ! f+= @ g+}.!.> { A A A { , N h+Y i+> "};
