/* XPM */
static char * left_xpm[] = {
"32 32 190 2",
"  	c #94DF00",
". 	c #B9E189",
"+ 	c #F1E7EF",
"@ 	c #F0E7ED",
"# 	c #B4E17C",
"$ 	c #B3E17A",
"% 	c #EEE7EA",
"& 	c #EFE7EB",
"* 	c #B4E17D",
"= 	c #B6E180",
"- 	c #000000",
"; 	c #B5E17D",
"> 	c #B6E181",
", 	c #F2E7EF",
"' 	c #F3E7F1",
") 	c #BCE28E",
"! 	c #97DF00",
"~ 	c #9ADF00",
"{ 	c #9CDF13",
"] 	c #C9E3A7",
"^ 	c #E3E6D8",
"/ 	c #E2E5D6",
"( 	c #C4E29F",
"_ 	c #CCE4AE",
": 	c #F5E8F3",
"< 	c #F5E8F4",
"[ 	c #CDE4B1",
"} 	c #C7E3A4",
"| 	c #E5E6DA",
"1 	c #F6E8F4",
"2 	c #E6E6DD",
"3 	c #CCE3AD",
"4 	c #B5E27B",
"5 	c #A2E044",
"6 	c #C6E2A1",
"7 	c #E1E5D3",
"8 	c #F5E8F2",
"9 	c #FFEAFF",
"0 	c #F6E8F5",
"a 	c #A8A8A8",
"b 	c #E4E6D9",
"c 	c #CAE3AA",
"d 	c #E7E6DE",
"e 	c #E2E6D5",
"f 	c #B5E27C",
"g 	c #98DF00",
"h 	c #E3E5D7",
"i 	c #C5E2A0",
"j 	c #F7E8F6",
"k 	c #DEE6CE",
"l 	c #B0E16E",
"m 	c #B1E171",
"n 	c #E1E6D3",
"o 	c #E7E6DF",
"p 	c #CCE3AE",
"q 	c #BCE28F",
"r 	c #E1E5D5",
"s 	c #9CE01E",
"t 	c #B2E174",
"u 	c #CBE3AC",
"v 	c #F4E7F3",
"w 	c #B4E17B",
"x 	c #E1E5D4",
"y 	c #9CE021",
"z 	c #B2E173",
"A 	c #CBE3AB",
"B 	c #EFE7EA",
"C 	c #CCE4AF",
"D 	c #F8F8F8",
"E 	c #E1E6D2",
"F 	c #B9E187",
"G 	c #C5E29F",
"H 	c #E6E6DC",
"I 	c #CAE3A9",
"J 	c #B8E186",
"K 	c #B2E176",
"L 	c #C4E29E",
"M 	c #E5E6DB",
"N 	c #F2E7F0",
"O 	c #B0E173",
"P 	c #C3E29C",
"Q 	c #B1E16F",
"R 	c #E0E6D0",
"S 	c #ECE6E6",
"T 	c #DFE5D1",
"U 	c #C4E29D",
"V 	c #9BE010",
"W 	c #FFE9FF",
"X 	c #F3E8F0",
"Y 	c #CBE4AC",
"Z 	c #9BE016",
"` 	c #B9E188",
" .	c #FEE9FF",
"..	c #F4E8F2",
"+.	c #C6E2A2",
"@.	c #C7E2A4",
"#.	c #B2E172",
"$.	c #DBE5C9",
"%.	c #ACE163",
"&.	c #AEE167",
"*.	c #F4E7F2",
"=.	c #CBE4AD",
"-.	c #ABE15F",
";.	c #96DF00",
">.	c #AFE16A",
",.	c #ECE7E6",
"'.	c #E0E5D2",
").	c #ABE160",
"!.	c #AEE168",
"~.	c #E2E6D4",
"{.	c #B4E278",
"].	c #95DF00",
"^.	c #DCE5CA",
"/.	c #ACE162",
"(.	c #ADE164",
"_.	c #DDE5CD",
":.	c #E0E6D1",
"<.	c #CBE3AD",
"[.	c #B4E177",
"}.	c #9FE035",
"|.	c #B1E175",
"1.	c #C9E3A8",
"2.	c #B3E177",
"3.	c #9FE034",
"4.	c #EEE7E9",
"5.	c #F7E8F7",
"6.	c #CAE3AB",
"7.	c #BBE18D",
"8.	c #B3E178",
"9.	c #CFE4B5",
"0.	c #9BE013",
"a.	c #9CE020",
"b.	c #F3E7F2",
"c.	c #F7E8F5",
"d.	c #DEE5CD",
"e.	c #AFE16C",
"f.	c #90DE00",
"g.	c #91DE00",
"h.	c #9DE023",
"i.	c #CFE4B4",
"j.	c #AFE16B",
"k.	c #9BE009",
"l.	c #92DE00",
"m.	c #B8E187",
"n.	c #E2E5D7",
"o.	c #8FDE00",
"p.	c #9CE01D",
"q.	c #C9E3A9",
"r.	c #C6E2A3",
"s.	c #99E000",
"t.	c #B0E171",
"u.	c #C7E2A3",
"v.	c #AEE169",
"w.	c #9AE000",
"x.	c #9AE004",
"y.	c #D1E4B8",
"z.	c #F9E9FA",
"A.	c #B8E185",
"B.	c #DFE6D0",
"C.	c #EBE6E5",
"D.	c #C3E29D",
"E.	c #E3E5D8",
"F.	c #F9E9F9",
"G.	c #9BE00D",
"H.	c #B0E16F",
"I.	c #F2E8EF",
"J.	c #CAE4AC",
"K.	c #D1E4B7",
"L.	c #B1E170",
"M.	c #FDE9FF",
"N.	c #F4E8F1",
"O.	c #E2E5D5",
"P.	c #C8E3A7",
"Q.	c #FAE9FA",
"R.	c #D2E4B9",
"S.	c #9CE01A",
"T.	c #E0E6D2",
"U.	c #F2E8EE",
"V.	c #9DE024",
"W.	c #BCE18E",
"X.	c #9DE028",
"Y.	c #9EE030",
"Z.	c #B4E279",
"`.	c #B3E176",
" +	c #BBE18C",
".+	c #EBE6E4",
"++	c #B2E178",
"@+	c #8DDE00",
"#+	c #F4E8F4",
"$+	c #BBE28D",
"  . + @ # $ % & * = + - - - - - - - - - - - - & ; > , ' ) ! ~ { ",
". ] ^ / ( _ : < [ } | - - - - - - - - - - - - 1 [ } | 2 3 4 5 ~ ",
"+ ^ 6 ( 7 8 9 9 0 - - a a a a a a a a a a a a - - b ] c d e f g ",
"@ h i _ 8 9 9 9 j - - a a a a a a a a a a a a - - k l m n o p q ",
"; i r : 9 9 9 - - a a a a a a a a a a a a a a a a - - s t u d v ",
"w i x : 9 9 0 - - a a a a a a a a a a a a a a a a - - y z A 2 ' ",
"B r ( C 1 - - - - D D a a a a a a a a a a a a a a - - z E 2 c F ",
"% x G i / - - - - D D a a a a a a a a a a a a a a - - A 2 H I J ",
"K L r - - D D D D D D D D a a a a a a a a a a - - - - - - I M N ",
"O P x - - D D D D D D D D a a a a a a a a a a - - - - - - Q R N ",
"S T U i h - - - - a a a a a a - - - - - - - - - - - - - - V Q J ",
"W X Y G h - - - - a a a a a a - - - - - - - - - - - - - - Z m ` ",
"W  ...r +.@.b - - D D - - D D D D - - - - - - - - - - - - #.E ' ",
"W  ...$.%.&.k - - D D - - D D D D - - - - - - - - - - - - u d *.",
"W X =.-.;.g >.- - D D - - D D D D - - D D D D - - - - #.n d 3 ) ",
",.'.L ).;.! !.- - D D - - D D D D - - D D D D - - - - A d ~.{.].",
"O P x ^./.(._.- - D D D D D D D D D D D D D D - - l :.2 <.[.}.;.",
"|.U x r i [ 0 - - D D D D D D D D D D D D D D - - 1.H 2 u 2.3.;.",
"4.x L L x < 9 9 5.- - a a D D D D D D - - - - a a - - 6.d ~.{.].",
"4.x U =.: 9 9 9 5.- - a a D D D D D D - - - - a a - - #.n d 3 7.",
"8.L x : 9 9 9 j 9.l 0.- - - - - - - - - - a a a a - - a.z u d b.",
"8.L x : 9 9 c.d.e.f.g.- - - - - - - - - - a a a a - - h.z A 2 ' ",
"% x L C 1 0 i.j.k.g.l.#.:.- - - - D D D D - - a a - - z E 2 c m.",
"4.x ( i n._.>.o.g.p.#.c H - - - - D D D D - - a a - - A 2 H q.J ",
"|.U r / r.!.s.f.g.m :.H q.- - - - D D D D - - a a - - 2 c I M , ",
"t.P x / u.v.w.x.Q y.z.N A.- - - - D D D D - - a a - - ' ` Q B., ",
"C.T D.i E.k e.l B.F.9 - - a a a a - - - - - - - - z.9 N F G.H.J ",
"W I.J.G E.b ] K.F.9 F.- - a a a a - - - - - - - - 9 z.:.L.0.L.m.",
"W M.N.O.@.P.M z.9 z.y.- - a a a a a a a a - - Q.9 Q.R.m S.m :.' ",
"W M.N.^.v.H.T.b.b.E m - - a a a a a a a a - - *.*.n t h.z A 2 ' ",
"W U.=.(.w.V.2.) W.2.X.#.:.- - - - - - - - Y.Z.q q {.Y.`.n d u  +",
"W .+++@+l.].! ! ! ;.]. +' - - - - - - - - ! g g g ! ;.q #+v $+]."};
