/* XPM */
static char * redfront_xpm[] = {
"32 32 156 2",
"  	c #94DF00",
". 	c #B9E189",
"+ 	c #F1E7EF",
"@ 	c #F0E7ED",
"# 	c #B4E17C",
"$ 	c #B3E17A",
"% 	c #EEE7EA",
"& 	c #EFE7EB",
"* 	c #B4E17D",
"= 	c #B6E180",
"- 	c #000000",
"; 	c #B5E17D",
"> 	c #B6E181",
", 	c #F2E7EF",
"' 	c #F3E7F1",
") 	c #BCE28E",
"! 	c #97DF00",
"~ 	c #9ADF00",
"{ 	c #9CDF13",
"] 	c #C9E3A7",
"^ 	c #E3E6D8",
"/ 	c #E2E5D6",
"( 	c #C4E29F",
"_ 	c #CCE4AE",
": 	c #F5E8F3",
"< 	c #F5E8F4",
"[ 	c #CDE4B1",
"} 	c #C7E3A4",
"| 	c #F6E8F4",
"1 	c #E5E6DA",
"2 	c #E6E6DD",
"3 	c #CCE3AD",
"4 	c #B5E27B",
"5 	c #A2E044",
"6 	c #C6E2A1",
"7 	c #E1E5D3",
"8 	c #F5E8F2",
"9 	c #FFEAFF",
"0 	c #A8A8A8",
"a 	c #F6E8F5",
"b 	c #E4E6D9",
"c 	c #CAE3AA",
"d 	c #E7E6DE",
"e 	c #E2E6D5",
"f 	c #B5E27C",
"g 	c #98DF00",
"h 	c #E3E5D7",
"i 	c #C5E2A0",
"j 	c #F7E8F6",
"k 	c #DEE6CE",
"l 	c #B0E16E",
"m 	c #B1E171",
"n 	c #E1E6D3",
"o 	c #E7E6DF",
"p 	c #CCE3AE",
"q 	c #BCE28F",
"r 	c #E1E5D5",
"s 	c #9BE011",
"t 	c #9CE01E",
"u 	c #B2E174",
"v 	c #CBE3AC",
"w 	c #F4E7F3",
"x 	c #B4E17B",
"y 	c #E1E5D4",
"z 	c #91DE00",
"A 	c #9CE021",
"B 	c #B2E173",
"C 	c #CBE3AB",
"D 	c #EFE7EA",
"E 	c #CCE4AF",
"F 	c #92DE00",
"G 	c #E1E6D2",
"H 	c #B9E187",
"I 	c #C5E29F",
"J 	c #DDE5CC",
"K 	c #E6E6DC",
"L 	c #CAE3A9",
"M 	c #B8E186",
"N 	c #B2E176",
"O 	c #C4E29E",
"P 	c #F8F8F8",
"Q 	c #E5E6DB",
"R 	c #F2E7F0",
"S 	c #B0E173",
"T 	c #C3E29C",
"U 	c #B9E188",
"V 	c #B1E16F",
"W 	c #E0E6D0",
"X 	c #ECE6E6",
"Y 	c #DFE5D1",
"Z 	c #C4E29D",
"` 	c #9BE010",
" .	c #FFE9FF",
"..	c #F3E8F0",
"+.	c #CBE4AC",
"@.	c #B1E170",
"#.	c #9BE016",
"$.	c #FEE9FF",
"%.	c #F4E7F2",
"&.	c #ECE7E6",
"*.	c #E0E5D2",
"=.	c #B4E278",
"-.	c #95DF00",
";.	c #DCE5CA",
">.	c #CBE3AD",
",.	c #B4E177",
"'.	c #9FE035",
").	c #96DF00",
"!.	c #B1E175",
"~.	c #B3E177",
"{.	c #9FE034",
"].	c #EEE7E9",
"^.	c #E2E6D4",
"/.	c #CBE4AD",
"(.	c #BBE18D",
"_.	c #B3E178",
":.	c #F3E7F2",
"<.	c #B8E187",
"[.	c #C9E3A9",
"}.	c #B0E171",
"|.	c #DFE6D0",
"1.	c #EBE6E5",
"2.	c #C3E29D",
"3.	c #E3E5D8",
"4.	c #9BE00D",
"5.	c #B0E16F",
"6.	c #F2E8EF",
"7.	c #CAE4AC",
"8.	c #F9E9FA",
"9.	c #E0E6D1",
"0.	c #9BE013",
"a.	c #FDE9FF",
"b.	c #F4E8F1",
"c.	c #E2E5D5",
"d.	c #C7E2A4",
"e.	c #C8E3A7",
"f.	c #D2E4B9",
"g.	c #9CE01A",
"h.	c #AEE169",
"i.	c #9DE023",
"j.	c #F2E8EE",
"k.	c #ADE164",
"l.	c #9AE000",
"m.	c #9DE024",
"n.	c #C7E3A5",
"o.	c #CEE4B3",
"p.	c #9EE030",
"q.	c #B3E176",
"r.	c #BBE18C",
"s.	c #EBE6E4",
"t.	c #B2E178",
"u.	c #8DDE00",
"v.	c #B7E182",
"w.	c #F1E7EE",
"x.	c #F4E8F4",
"y.	c #BBE28D",
"  . + @ # $ % & * = - - - - - - - - - - - - % & ; > , ' ) ! ~ { ",
". ] ^ / ( _ : < [ } - - - - - - - - - - - - : | [ } 1 2 3 4 5 ~ ",
"+ ^ 6 ( 7 8 9 9 - - 0 0 0 0 0 0 0 0 0 0 0 0 - - a b ] c d e f g ",
"@ h i _ 8 9 9 9 - - 0 0 0 0 0 0 0 0 0 0 0 0 - - j k l m n o p q ",
"; i r : 9 9 - - 0 0 0 0 0 0 0 0 0 0 0 0 0 0 0 0 - - s t u v d w ",
"x i y : 9 9 - - 0 0 0 0 0 0 0 0 0 0 0 0 0 0 0 0 - - z A B C 2 ' ",
"D r ( E | a - - 0 0 0 0 0 0 0 0 0 0 0 0 0 0 0 0 - - F B G 2 c H ",
"% y I i / J - - 0 0 0 0 0 0 0 0 0 0 0 0 0 0 0 0 - - B C 2 K L M ",
"N O r / - - - - - - 0 0 P P P P P P P P 0 0 - - - - - - c L Q R ",
"S T y / - - - - - - 0 0 P P P P P P P P 0 0 - - - - - - U V W R ",
"X Y Z i - - - - P P - - - - - - - - - - - - P P - - - - H ` V M ",
" ...+.I - - - - P P - - - - - - - - - - - - P P - - - - @.#.m U ",
" .$.- - P P - - P P P P P P P P P P P P P P P P - - P P - - G ' ",
" .$.- - P P - - P P P P P P P P P P P P P P P P - - P P - - d %.",
" ...- - P P P P P P P P - - P P P P - - P P P P P P P P - - 3 ) ",
"&.*.- - P P P P P P P P - - P P P P - - P P P P P P P P - - =.-.",
"S T y ;.- - - - P P P P - - P P P P - - P P P P - - - - >.,.'.).",
"!.Z y r - - - - P P P P - - P P P P - - P P P P - - - - v ~.{.).",
"].y O O - - - - - - P P P P 0 0 0 0 P P P P - - - - - - d ^.=.-.",
"].y Z /.- - - - - - P P P P 0 0 0 0 P P P P - - - - - - n d 3 (.",
"_.O - - P P P P - - - - - - - - - - - - - - - - P P P P - - d :.",
"_.O - - P P P P - - - - - - - - - - - - - - - - P P P P - - 2 ' ",
"% y - - P P P P - - - - - - - - - - - - - - - - P P P P - - c <.",
"].y - - P P P P - - - - - - - - - - - - - - - - P P P P - - [.M ",
"!.Z r / - - - - - - 0 0 0 0 - - - - 0 0 0 0 - - - - - - c L Q , ",
"}.T y / - - - - - - 0 0 0 0 - - - - 0 0 0 0 - - - - - - U V |., ",
"1.Y 2.i 3.k - - 0 0 - - - - 0 0 0 0 - - - - 0 0 - - 9 R H 4.5.M ",
" .6.7.I 3.b - - 0 0 - - - - 0 0 0 0 - - - - 0 0 - - 8.9.@.0.@.<.",
" .a.b.c.d.e.- - 0 0 0 0 0 0 - - - - 0 0 0 0 0 0 - - f.m g.m 9.' ",
" .a.b.;.h.5.- - 0 0 0 0 0 0 - - - - 0 0 0 0 0 0 - - u i.B C 2 ' ",
" .j./.k.l.m.~.) - - - - - - n.o.j j - - - - - - q =.p.q.n d v r.",
" .s.t.u.F -.! ! - - - - - - v.= @ w.- - - - - - g ! ).q x.w y.-."};
