/* XPM */
static char * redfront_xpm[] = {
"32 32 4 1",
" 	c None",
".	c #000000",
"+	c #A8A8A8",
"@	c #F8F8F8",
"          ............          ",
"          ............          ",
"        ..++++++++++++..        ",
"        ..++++++++++++..        ",
"      ..++++++++++++++++..      ",
"      ..++++++++++++++++..      ",
"      ..++++++++++++++++..      ",
"      ..++++++++++++++++..      ",
"    ......++@@@@@@@@++......    ",
"    ......++@@@@@@@@++......    ",
"    ....@@............@@....    ",
"    ....@@............@@....    ",
"  ..@@..@@@@@@@@@@@@@@@@..@@..  ",
"  ..@@..@@@@@@@@@@@@@@@@..@@..  ",
"  ..@@@@@@@@..@@@@..@@@@@@@@..  ",
"  ..@@@@@@@@..@@@@..@@@@@@@@..  ",
"    ....@@@@..@@@@..@@@@....    ",
"    ....@@@@..@@@@..@@@@....    ",
"    ......@@@@++++@@@@......    ",
"    ......@@@@++++@@@@......    ",
"  ..@@@@................@@@@..  ",
"  ..@@@@................@@@@..  ",
"  ..@@@@................@@@@..  ",
"  ..@@@@................@@@@..  ",
"    ......++++....++++......    ",
"    ......++++....++++......    ",
"      ..++....++++....++..      ",
"      ..++....++++....++..      ",
"      ..++++++....++++++..      ",
"      ..++++++....++++++..      ",
"        ......    ......        ",
"        ......    ......        "};
