/* XPM */
static char * right_xpm[] = {
"32 32 192 2",
"  	c #94DF00",
". 	c #B9E189",
"+ 	c #F1E7EF",
"@ 	c #F0E7ED",
"# 	c #B4E17C",
"$ 	c #B3E17A",
"% 	c #EEE7EA",
"& 	c #EFE7EB",
"* 	c #B4E17D",
"= 	c #000000",
"- 	c #B5E17D",
"; 	c #B6E181",
"> 	c #F2E7EF",
", 	c #F3E7F1",
"' 	c #BCE28E",
") 	c #97DF00",
"! 	c #9ADF00",
"~ 	c #9CDF13",
"{ 	c #C9E3A7",
"] 	c #E3E6D8",
"^ 	c #E2E5D6",
"/ 	c #C4E29F",
"( 	c #CCE4AE",
"_ 	c #F5E8F3",
": 	c #F5E8F4",
"< 	c #CDE4B1",
"[ 	c #F6E8F4",
"} 	c #C7E3A4",
"| 	c #E5E6DA",
"1 	c #E6E6DD",
"2 	c #CCE3AD",
"3 	c #B5E27B",
"4 	c #A2E044",
"5 	c #C6E2A1",
"6 	c #E1E5D3",
"7 	c #F5E8F2",
"8 	c #FFEAFF",
"9 	c #A8A8A8",
"0 	c #F6E8F5",
"a 	c #E4E6D9",
"b 	c #CAE3AA",
"c 	c #E7E6DE",
"d 	c #E2E6D5",
"e 	c #B5E27C",
"f 	c #98DF00",
"g 	c #E3E5D7",
"h 	c #C5E2A0",
"i 	c #F7E8F6",
"j 	c #DEE6CE",
"k 	c #B0E16E",
"l 	c #B1E171",
"m 	c #E1E6D3",
"n 	c #E7E6DF",
"o 	c #CCE3AE",
"p 	c #BCE28F",
"q 	c #E1E5D5",
"r 	c #B0E16C",
"s 	c #9BE011",
"t 	c #9CE01E",
"u 	c #B2E174",
"v 	c #CBE3AC",
"w 	c #F4E7F3",
"x 	c #B4E17B",
"y 	c #E1E5D4",
"z 	c #90DE00",
"A 	c #91DE00",
"B 	c #9CE021",
"C 	c #B2E173",
"D 	c #CBE3AB",
"E 	c #EFE7EA",
"F 	c #CCE4AF",
"G 	c #F8F8F8",
"H 	c #E1E6D2",
"I 	c #B9E187",
"J 	c #C5E29F",
"K 	c #E6E6DC",
"L 	c #CAE3A9",
"M 	c #B8E186",
"N 	c #B2E176",
"O 	c #C4E29E",
"P 	c #E5E6DB",
"Q 	c #F2E7F0",
"R 	c #B0E173",
"S 	c #C3E29C",
"T 	c #B1E16F",
"U 	c #E0E6D0",
"V 	c #ECE6E6",
"W 	c #DFE5D1",
"X 	c #C4E29D",
"Y 	c #9BE010",
"Z 	c #FFE9FF",
"` 	c #F3E8F0",
" .	c #CBE4AC",
"..	c #B1E170",
"+.	c #9BE016",
"@.	c #B9E188",
"#.	c #FEE9FF",
"$.	c #F4E8F2",
"%.	c #F9E9F9",
"&.	c #D1E4B8",
"*.	c #9CE018",
"=.	c #B2E172",
"-.	c #DFE6D0",
";.	c #F4E7F2",
">.	c #CBE4AD",
",.	c #ABE15F",
"'.	c #96DF00",
").	c #B0E16F",
"!.	c #9BE015",
"~.	c #ECE7E6",
"{.	c #E0E5D2",
"].	c #ABE160",
"^.	c #9BE009",
"/.	c #E2E6D4",
"(.	c #B4E278",
"_.	c #95DF00",
":.	c #DCE5CA",
"<.	c #ACE162",
"[.	c #ADE164",
"}.	c #DDE5CD",
"|.	c #E0E6D1",
"1.	c #CBE3AD",
"2.	c #B4E177",
"3.	c #9FE035",
"4.	c #B1E175",
"5.	c #C9E3A8",
"6.	c #B3E177",
"7.	c #9FE034",
"8.	c #EEE7E9",
"9.	c #F8E8F7",
"0.	c #CAE3AB",
"a.	c #DFE6CF",
"b.	c #BBE18D",
"c.	c #B3E178",
"d.	c #CFE4B5",
"e.	c #9CE019",
"f.	c #9CE020",
"g.	c #F3E7F2",
"h.	c #DEE5CD",
"i.	c #B0E16D",
"j.	c #92DE00",
"k.	c #9DE023",
"l.	c #CDE4B0",
"m.	c #CFE4B4",
"n.	c #AFE16B",
"o.	c #9BE00D",
"p.	c #B8E187",
"q.	c #E2E5D7",
"r.	c #C6E2A2",
"s.	c #AFE16A",
"t.	c #9CE01F",
"u.	c #C9E3A9",
"v.	c #C6E2A3",
"w.	c #C7E2A4",
"x.	c #AEE169",
"y.	c #9AE000",
"z.	c #B1E172",
"A.	c #E0E6D2",
"B.	c #B0E171",
"C.	c #C7E2A3",
"D.	c #E3E5D8",
"E.	c #C7E3A5",
"F.	c #9BE00A",
"G.	c #D1E4B9",
"H.	c #FAE9FA",
"I.	c #EBE6E5",
"J.	c #C3E29D",
"K.	c #AFE16C",
"L.	c #F9E9FA",
"M.	c #F2E8EF",
"N.	c #CAE4AC",
"O.	c #9BE013",
"P.	c #FDE9FF",
"Q.	c #F4E8F1",
"R.	c #E2E5D5",
"S.	c #C8E3A7",
"T.	c #D2E4B9",
"U.	c #9CE01A",
"V.	c #F2E8EE",
"W.	c #9DE024",
"X.	c #BCE18E",
"Y.	c #9DE028",
"Z.	c #9DE025",
"`.	c #9EE030",
" +	c #B4E279",
".+	c #B3E176",
"++	c #BBE18C",
"@+	c #EBE6E4",
"#+	c #B2E178",
"$+	c #8DDE00",
"%+	c #F4E8F4",
"&+	c #BBE28D",
"  . + @ # $ % & * = = = = = = = = = = = = $ % & - ; > , ' ) ! ~ ",
". { ] ^ / ( _ : < = = = = = = = = = = = = ( _ [ < } | 1 2 3 4 ! ",
"+ ] 5 / 6 7 8 = = 9 9 9 9 9 9 9 9 9 9 9 9 = = 8 0 a { b c d e f ",
"@ g h ( 7 8 8 = = 9 9 9 9 9 9 9 9 9 9 9 9 = = 8 i j k l m n o p ",
"- h q _ 8 = = 9 9 9 9 9 9 9 9 9 9 9 9 9 9 9 9 = = r s t u v c w ",
"x h y _ 8 = = 9 9 9 9 9 9 9 9 9 9 9 9 9 9 9 9 = = z A B C D 1 , ",
"E q / F [ = = 9 9 9 9 9 9 9 9 9 9 9 9 9 9 G G = = = = C H 1 b I ",
"% y J h ^ = = 9 9 9 9 9 9 9 9 9 9 9 9 9 9 G G = = = = D 1 K L M ",
"N O q = = = = = = 9 9 9 9 9 9 9 9 9 9 G G G G G G G G = = L P Q ",
"R S y = = = = = = 9 9 9 9 9 9 9 9 9 9 G G G G G G G G = = T U Q ",
"V W X = = = = = = = = = = = = = = 9 9 9 9 9 9 = = = = Q I Y T M ",
"Z `  .= = = = = = = = = = = = = = 9 9 9 9 9 9 = = = = U ..+.l @.",
"Z #.$.= = = = = = = = = = = = G G G G = = G G = = %.&...*.=.H , ",
"Z #.$.= = = = = = = = = = = = G G G G = = G G = = -.T *.C v c ;.",
"Z ` >.,.'.= = = = G G G G = = G G G G = = G G = = ).!.=.m c 2 ' ",
"~.{.O ].'.= = = = G G G G = = G G G G = = G G = = ^.l D c /.(._.",
"R S y :.<.[.}.= = G G G G G G G G G G G G G G = = k |.1 1.2.3.'.",
"4.X y q h < 0 = = G G G G G G G G G G G G G G = = 5.K 1 v 6.7.'.",
"8.y O O y = = 9 9 = = = = G G G G G G 9 9 = = 8 9.| L 0.c /.(._.",
"8.y X >._ = = 9 9 = = = = G G G G G G 9 9 = = 8 9.a...=.m c 2 b.",
"c.O y _ 8 = = 9 9 9 9 = = = = = = = = = = 8 8 i d.k e.f.C v c g.",
"c.O y _ 8 = = 9 9 9 9 = = = = = = = = = = 8 i h.i.A j.k.C D 1 , ",
"% y O F [ = = 9 9 = = G G G G = = = = l.0 i m.n.o.A j.C H 1 b p.",
"8.y / h q.= = 9 9 = = G G G G = = = = r.g h.s.z A t.C D 1 K u.M ",
"4.X q ^ v.= = 9 9 = = G G G G = = = = g w.x.y.z A z.A.1 b L P > ",
"B.S y ^ C.= = 9 9 = = G G G G = = = = D.E.n.y.F...G.H., @.T -.> ",
"I.W J.h D.j K.= = = = = = = = 9 9 9 9 = = a.i.k U L.8 Q I o.).M ",
"Z M.N.J D.a { = = = = = = = = 9 9 9 9 = = | 5.&.L.8 L.|...O...p.",
"Z P.Q.R.w.S.P L.8 = = 9 9 9 9 9 9 9 9 = = u.K H.8 H.T.l U.l |., ",
"Z P.Q.:.x.).A.g.g.= = 9 9 9 9 9 9 9 9 = = =.m ;.;.m u k.C D 1 , ",
"Z V.>.[.y.W.6.' X.6.Y.= = = = = = = = T Z.`. +p p (.`..+m c v ++",
"Z @+#+$+j._.) ) ) '._.= = = = = = = = j._.) f f f ) '.p %+w &+_."};
