/* XPM */
static char *b4dea4188c5e47b2fb5dfe97c8e99bcdXxxnewet6JiV5kXP[] = {
/* columns rows colors chars-per-pixel */
"32 32 173 2 ",
"   c #04722B",
".  c #157239",
"X  c #1F7D3F",
"o  c #1A753A",
"O  c #286E3A",
"+  c #3B6D4A",
"@  c #2B7446",
"#  c #3B7B50",
"$  c #0B883C",
"%  c #0B8339",
"&  c #178440",
"*  c #148E43",
"=  c #338449",
"-  c #24934F",
";  c #458855",
":  c #44825B",
">  c #4C865E",
",  c #468E60",
"<  c #4D9162",
"1  c #589063",
"2  c #5C906A",
"3  c #5D9673",
"4  c #6B9476",
"5  c #619974",
"6  c #6B9B75",
"7  c #719977",
"8  c #779E7F",
"9  c #54AE6E",
"0  c #5BA471",
"q  c #4AB571",
"w  c #54B878",
"e  c #65AC7E",
"r  c #77AD83",
"t  c #7CA885",
"y  c #6BBE86",
"u  c #6FB68A",
"i  c #63BC84",
"p  c #7CB38C",
"a  c #74BE8B",
"s  c #65CB8A",
"d  c #79C597",
"f  c #7DCA96",
"g  c #79D596",
"h  c #74D294",
"j  c #929393",
"k  c #959998",
"l  c #9D9D9D",
"z  c #87A58D",
"x  c #88B18F",
"c  c #82B28C",
"v  c #86AE92",
"b  c #8EAC95",
"n  c #92A798",
"m  c #8FBC9D",
"M  c #A2A19F",
"N  c #A49FA5",
"B  c #9DB8A7",
"V  c #A2AEA0",
"C  c #A3ACAB",
"Z  c #ADAFAE",
"A  c #A8A5A6",
"S  c #A7B4AB",
"D  c #AEB1AA",
"F  c #AAB8AB",
"G  c #B1ACB2",
"H  c #AFB1B0",
"J  c #B0B0B2",
"K  c #B7B9B8",
"L  c #BBBABB",
"P  c #94D29F",
"I  c #8DC0A1",
"U  c #92C3A3",
"Y  c #9BCCAE",
"T  c #87DAA2",
"R  c #90D9A2",
"E  c #97D5AE",
"W  c #98D7AC",
"Q  c #9DDDA9",
"!  c #A0C5A6",
"~  c #A3D3AE",
"^  c #ADC5B3",
"/  c #B3C8B7",
"(  c #BEC3BF",
")  c #B9CBBB",
"_  c #AEDDB9",
"`  c #A5D3B6",
"'  c #B2D3BD",
"]  c #B8D4BE",
"[  c #B1EABD",
"{  c #AFF6BC",
"}  c #C1BFC0",
"|  c #BEC4C4",
" . c #BFC8C7",
".. c #BED7C2",
"X. c #B3DEC0",
"o. c #BBDCC4",
"O. c #B8E7C5",
"+. c #BEE5CA",
"@. c #A0F7C0",
"#. c #A0FBC0",
"$. c #AAF8C4",
"%. c #C5C6C4",
"&. c #CBC7C6",
"*. c #C0CAC1",
"=. c #C7CDCA",
"-. c #CCCBCC",
";. c #C0D5C4",
":. c #C7D4CA",
">. c #C3DFC8",
",. c #D3D4CE",
"<. c #D1CFD0",
"1. c #CDDCD0",
"2. c #CDD3D1",
"3. c #D3D4D2",
"4. c #D5D9D5",
"5. c #D7D9D8",
"6. c #DCDADB",
"7. c #DED4DC",
"8. c #E2D9DE",
"9. c #C3E8C9",
"0. c #C6E8D0",
"q. c #CDE8D5",
"w. c #DCE3DD",
"e. c #DDE9DD",
"r. c #D2F2DD",
"t. c #E4E4DF",
"y. c #E4DDE2",
"u. c #DEE2E1",
"i. c #DAF7E5",
"p. c #DFFFF2",
"a. c #E4E2E3",
"s. c #E8E4E2",
"d. c #E6EDE5",
"f. c #EAECE6",
"g. c #E6E4E9",
"h. c #EBE5E9",
"j. c #E5E9E8",
"k. c #EBEBEC",
"l. c #F3EEEE",
"z. c #E8F9E7",
"x. c #E6F2E8",
"c. c #EEF1ED",
"v. c #E4FDEC",
"b. c #EBFDEE",
"n. c #E2F4E4",
"m. c #F1F1ED",
"M. c #F3FBEE",
"N. c #EDEEF0",
"B. c #F3EEF1",
"V. c #EAF2F3",
"C. c #E6FFF2",
"Z. c #ECFEF2",
"A. c #F4F4F5",
"S. c #FAF5F5",
"D. c #F3FDF5",
"F. c #F9FAF6",
"G. c #F2F6F9",
"H. c #FDF6FA",
"J. c #F6FEFB",
"K. c #FCFFFD",
"L. c #FEFFFD",
"P. c #FFFFFD",
"I. c #FFFEFD",
"U. c #FFFCFF",
"Y. c #FFFDFF",
"T. c #FFFDFE",
"R. c #FCFFFF",
"E. c #FDFFFF",
"W. c #FFFEFF",
"Q. c #FEFFFF",
"!. c white",
"~. c #FFFCFD",
"^. c #FDFEFE",
/* pixels */
"!.!.R.R.R.!.!.U.H.H.U.U.!.A.J.V.N.G.!.F.L.D.D.I.R.J.J.!.!.!.U.U.",
"!.!.!.R.R.!.!.!.U.U.H.U.U.J.V. .Z %.F.!.J.I.F.D.J.!.I.!.!.!.U.U.",
"!.U.!.!.R.!.!.U.U.H.H.U.H.!.j.%.K } J.U.J.!.D.R.!.J.!.!.!.!.!.U.",
"!.!.!.!.R.R.R.!.U.H.U.U.H.!.j.j.S.6.U.!.A.!.J.R.!.!.!.!.U.U.!.!.",
"U.U.!.R.R.R.R.R.!.H.U.U.S.~.a.S.!.y.H.U.H.!.H.H.!.!.!.!.!.!.I.I.",
"U.U.!.!.R.R.R.R.!.S.H.!.!.m.6.M.H.h.S.U.U.U.U.U.!.!.!.!.!.U.I.I.",
"U.U.!.!.R.R.J.R.!.U.S.~.!.t.t.c.~.~.l.~.U.U.U.U.U.!.!.!.!.I.I.I.",
"~.~.!.R.R.J.R.R.J.!.I.S.S.,.t.c.F.!.a.m.!.H.U.H.U.U.!.!.!.I.I.I.",
"~.F.I.!.R.R.R.R.R.!.S.!.3.4.w.d.D.D.f.-.A.U.U.U.U.U.U.!.!.I.I.I.",
"~.~.I.I.R.R.R.R.A.!.I.c.| u.b.i.M.D.b.*.3.F.!.U.!.U.U.!.!.I.L.L.",
"L.I.I.I.!.R.!.U.!.!.!.A.S / ....o.9.;.) 1.J.!.J.U.U.!.!.I.I.L.L.",
"L.I.I.I.!.!.!.!.U.A.F.n.n n p p t x ! o.;.D.V.!.!.U.U.U.I.I.I.F.",
"L.L.I.I.!.!.!.U.!.!.!.b.^ o.Y p p 8 e 7 b A.J.!.!.U.!.U.!.I.I.I.",
"L.F.I.I.!.!.U.H.U.H.J.b.' ` 3 # ; P [ c t C.D.b.J.!.!.U.!.!.I.I.",
"F.I.J.J.!.U.U.U.U.~.F.C.' m : , P { ~ 1 6 C.D.J.I.!.U.!.!.!.I.I.",
"D.J.I.!.!.!.U.U.H.I.J.q.U E d @.g 9 = O r v.v.J.I.!.!.!.!.!.I.I.",
"J.J.R.!.U.U.U.U.!.J.Z.O.# $.#.q $ $ $ X u p.V.J.J.!.U.!.!.!.I.J.",
"J.J.R.!.U.U.H.U.I.D.C.O.< T h   $ $ - o i p.C.J.!.!.U.!.U.!.!.!.",
"R.J.R.!.U.U.U.!.F.D.Z.+.> 0 y @ s 9 e @ 5 C.Z.J.I.U.U.U.!.!.J.R.",
"R.R.!.!.U.U.U.U.!.J.Z.+.+ ; e 0 f d Q 5 v Z.J.F.!.!.!.U.!.I.!.J.",
"R.J.!.!.U.U.U.U.!.J.Z.i.4 m I W _ ~ 9.x ^ L.~.I.!.U.!.!.!.J.R.J.",
"!.I.!.!.!.!.!.!.!.A.J.J.B i.9.C.M.z.z.M :.F.J.!.U.!.U.!.!.I.J.I.",
"I.!.!.!.!.U.!.!.R.R.J.J.S :.1.z.M.M.c.D t.I.J.H.!.!.!.!.I.L.I.L.",
"I.!.!.!.!.U.R.!.J.R.R.J.L =.e.j.F.L.t.M t.I.!.!.!.U.I.I.I.L.L.L.",
"~.~.!.U.!.!.!.R.J.H.R.H.J <.7.h.~.~.N.l 5.!.G.R.!.!.!.!.U.~.~.~.",
"I.~.!.U.!.!.!.R.!.!.!.N.A y.y.B.H.S.V.H ( R.J.J.R.R.!.!.!.~.~.~.",
"U.U.!.!.!.!.!.R.G.G.U.6.N y.7.h.R.J.V.| C J.R.J.R.R.R.U.!.U.~.U.",
"!.!.U.!.!.!.R.!.!.!.!.g.G y.y.G.A.G.N. .C J.R.!.R.R.!.!.!.U.~.~.",
"!.!.!.!.!.!.!.!.A.!.A.k.L -.g.U.N.R.V.=.,.J.!.D.R.R.!.!.!.U.!.!.",
"!.!.!.!.!.!.!.!.~.!.U.!.3.L &.3.K -.5.%.f.L.F.J.I.I.!.!.!.!.!.!.",
"!.!.!.!.!.!.I.I.J.I.F.J.3.G k j j A L &.l.L.L.I.I.I.I.I.R.R.R.R.",
"R.!.!.!.!.!.I.I.!.F.!.!.D.G.w.w.s.s.l.I.L.L.S.I.I.I.I.I.!.R.R.R."
};
