/* XPM */
static char * wall_xpm[] = {
"32 32 901 2",
"  	c #95E000",
". 	c #C3E692",
"+ 	c #F7EBEE",
"@ 	c #F3ECE5",
"# 	c #C1E87D",
"$ 	c #CAEB92",
"% 	c #FDF1F0",
"& 	c #FBF5EB",
"* 	c #C7EE88",
"= 	c #7DC100",
"- 	c #001B00",
"; 	c #000000",
"> 	c #003B72",
", 	c #7BBBEC",
"' 	c #C8E6FF",
") 	c #FDF5FF",
"! 	c #FAF6E7",
"~ 	c #C7EE7F",
"{ 	c #CAEC8D",
"] 	c #F9EFEC",
"^ 	c #F4EDE8",
"/ 	c #BFE67F",
"( 	c #C0E589",
"_ 	c #F3EAEA",
": 	c #EFE9E6",
"< 	c #B9E27C",
"[ 	c #8BDF00",
"} 	c #BDE484",
"| 	c #D1E6AC",
"1 	c #EAEAD8",
"2 	c #E0E8D2",
"3 	c #B6E3A5",
"4 	c #C0E6C0",
"5 	c #E9EBFA",
"6 	c #E2E4EA",
"7 	c #AAD07F",
"8 	c #65AA00",
"9 	c #006B00",
"0 	c #002D00",
"a 	c #4B3844",
"b 	c #604162",
"c 	c #5F4261",
"d 	c #60405A",
"e 	c #644860",
"f 	c #677599",
"g 	c #71A4D1",
"h 	c #A4BFE9",
"i 	c #D9CEEA",
"j 	c #DBDBD3",
"k 	c #B9E3A7",
"l 	c #C0EBAD",
"m 	c #E8EEDA",
"n 	c #EBEDD6",
"o 	c #D1E8A4",
"p 	c #D0E7A7",
"q 	c #E7E9D6",
"r 	c #E5E8D3",
"s 	c #C9E49F",
"t 	c #B6E276",
"u 	c #F2EAE6",
"v 	c #E6EACF",
"w 	c #CFE8A7",
"x 	c #B7E2AC",
"y 	c #A2DBD8",
"z 	c #A8DAFA",
"A 	c #BBDCFF",
"B 	c #A7C0E6",
"C 	c #587D6C",
"D 	c #1B7600",
"E 	c #63AC00",
"F 	c #9FC468",
"G 	c #CEC9C5",
"H 	c #E1CAE3",
"I 	c #E1CAE2",
"J 	c #E1CDE2",
"K 	c #E1CCE0",
"L 	c #BFB1C8",
"M 	c #647194",
"N 	c #04376B",
"O 	c #655372",
"P 	c #8592A2",
"Q 	c #97C9D5",
"R 	c #AAE2D5",
"S 	c #C0EAAB",
"T 	c #D7EBAD",
"U 	c #ECECD4",
"V 	c #E7EBD1",
"W 	c #D0E6A6",
"X 	c #CEE5A7",
"Y 	c #E4E8D0",
"Z 	c #EEE8E3",
"` 	c #F4EBEA",
" .	c #E8EAD2",
"..	c #CFE9A4",
"+.	c #B7E3AB",
"@.	c #A2DBDB",
"#.	c #91CEEF",
"$.	c #7FB8EC",
"%.	c #5994C1",
"&.	c #005B40",
"*.	c #528700",
"=.	c #A7D262",
"-.	c #D9F0B9",
";.	c #FDF3F6",
">.	c #FFF5FF",
",.	c #FFF6FF",
"'.	c #FCF4F0",
").	c #DAD5CC",
"!.	c #988A8B",
"~.	c #2E0000",
"{.	c #000051",
"].	c #5C94C8",
"^.	c #88C7C6",
"/.	c #9CE06A",
"(.	c #C1EA8D",
"_.	c #E6E9ED",
":.	c #E2E7E6",
"<.	c #B6E47B",
"[.	c #C0E580",
"}.	c #F2EAE7",
"|.	c #FFECFF",
"1.	c #C3E68D",
"2.	c #D5E8AF",
"3.	c #EBECD6",
"4.	c #E2EDD2",
"5.	c #B7E4AA",
"6.	c #81C089",
"7.	c #2B717A",
"8.	c #00644E",
"9.	c #63A700",
"0.	c #A8CE68",
"a.	c #E0E7C9",
"b.	c #FBF3F4",
"c.	c #FFF4FF",
"d.	c #FAF3EE",
"e.	c #D7F0B1",
"f.	c #CFE7A5",
"g.	c #DCD4CC",
"h.	c #BBA1B3",
"i.	c #2A0000",
"j.	c #00004E",
"k.	c #4D8957",
"l.	c #8ED200",
"m.	c #AEE78D",
"n.	c #BCDFEE",
"o.	c #B6DBE6",
"p.	c #A3E17A",
"q.	c #C1E57E",
"r.	c #F4EAE8",
"s.	c #C0E785",
"t.	c #D5E9AD",
"u.	c #EFEEDA",
"v.	c #E7EFD7",
"w.	c #BCE7A6",
"x.	c #77B45A",
"y.	c #173B00",
"z.	c #A4C766",
"A.	c #DCEEBB",
"B.	c #FEF1F6",
"C.	c #FFF1FF",
"D.	c #FFF0FF",
"E.	c #F6EEEE",
"F.	c #E2EDCA",
"G.	c #C9EC97",
"H.	c #CFEEB2",
"I.	c #EAEDF1",
"J.	c #DCD2ED",
"K.	c #9D8BA1",
"L.	c #3F0017",
"M.	c #004500",
"N.	c #87C562",
"O.	c #A3E5AC",
"P.	c #9CDCD8",
"Q.	c #95D8D2",
"R.	c #96DC9F",
"S.	c #C1E3B2",
"T.	c #F5E9F1",
"U.	c #FFEDFF",
"V.	c #F4EEE7",
"W.	c #EAEED1",
"X.	c #D6ECAA",
"Y.	c #C0E9B3",
"Z.	c #A9DED9",
"`.	c #71AABC",
" +	c #00002C",
".+	c #64424D",
"++	c #D7CEC8",
"@+	c #FEF3F6",
"#+	c #FFF3FF",
"$+	c #FFEFFF",
"%+	c #F4ECEB",
"&+	c #D0E9AA",
"*+	c #CBE99C",
"=+	c #E3EDCB",
"-+	c #E4EBEF",
";+	c #CEE5FF",
">+	c #CFDEFF",
",+	c #DED4EE",
"'+	c #BFA4B5",
")+	c #450000",
"!+	c #003245",
"~+	c #80BAC5",
"{+	c #A0E1D4",
"]+	c #A0E4A8",
"^+	c #98DEA6",
"/+	c #BFDCF1",
"(+	c #F5E7FF",
"_+	c #FFEEFF",
":+	c #F8EFED",
"<+	c #E5EED5",
"[+	c #BBE8A8",
"}+	c #9AD8AF",
"|+	c #85BED8",
"1+	c #6194BF",
"2+	c #215A46",
"3+	c #878A5F",
"4+	c #DED6CD",
"5+	c #FFF1F9",
"6+	c #F8EDF1",
"7+	c #E1EACC",
"8+	c #C6E795",
"9+	c #D4EAAD",
"0+	c #FAF0F1",
"a+	c #F8ECFF",
"b+	c #D3E3FF",
"c+	c #CCDCFF",
"d+	c #E1D6EF",
"e+	c #D5BACA",
"f+	c #9F8190",
"g+	c #787699",
"h+	c #7DA4D1",
"i+	c #8AC6D1",
"j+	c #9CDDA3",
"k+	c #A9E3B7",
"l+	c #B6DCF4",
"m+	c #CDDEFF",
"n+	c #E9E7F1",
"o+	c #F5EBE7",
"p+	c #C9EB93",
"q+	c #C0E8B3",
"r+	c #A8DFD9",
"s+	c #83BBD3",
"t+	c #44709F",
"u+	c #3C6C58",
"v+	c #73AB00",
"w+	c #9CCE00",
"x+	c #BEE37A",
"y+	c #E1ECC3",
"z+	c #FFEFF7",
"A+	c #F8ECEF",
"B+	c #CCE7A1",
"C+	c #E4EACC",
"D+	c #F8EDED",
"E+	c #FFF2FF",
"F+	c #F9EFFF",
"G+	c #DAD1EB",
"H+	c #A693A5",
"I+	c #A98F9B",
"J+	c #D7BFCF",
"K+	c #CBB8CD",
"L+	c #7A789B",
"M+	c #4C839E",
"N+	c #89C5D1",
"O+	c #BEE2F4",
"P+	c #E5E8FF",
"Q+	c #E8EAF2",
"R+	c #D0E8B2",
"S+	c #BFE67C",
"T+	c #C7ED89",
"U+	c #B8DFB1",
"V+	c #95C4DC",
"W+	c #6896D3",
"X+	c #315A9A",
"Y+	c #568277",
"Z+	c #92CC83",
"`+	c #A5E766",
" @	c #A5E900",
".@	c #C3E894",
"+@	c #E6E8EF",
"@@	c #DFE7E4",
"#@	c #B5E476",
"$@	c #C2E681",
"%@	c #F6ECE9",
"&@	c #FEF0F2",
"*@	c #FAF3F5",
"=@	c #F8EFFF",
"-@	c #D5CFEA",
";@	c #7A819F",
">@	c #837F97",
",@	c #D4BFD0",
"'@	c #D2BDCF",
")@	c #7F7A96",
"!@	c #33699A",
"~@	c #6DA1D3",
"{@	c #B0CAEC",
"]@	c #E5E5EC",
"^@	c #ECEFD3",
"/@	c #D1EA9F",
"(@	c #BDE778",
"_@	c #F8F3EA",
":@	c #D6D1D2",
"<@	c #7F84A3",
"[@	c #3E67A9",
"}@	c #709DD6",
"|@	c #8DBFEC",
"1@	c #9ED6ED",
"2@	c #A4E2C5",
"3@	c #A3E664",
"4@	c #ACE391",
"5@	c #B9DBEE",
"6@	c #B4DBE4",
"7@	c #A4E176",
"8@	c #C5E785",
"9@	c #FAEDEB",
"0@	c #FEF0F1",
"a@	c #DBEEB3",
"b@	c #C8EAB8",
"c@	c #C6E4F4",
"d@	c #B5D6FF",
"e@	c #90BFED",
"f@	c #7FA2C8",
"g@	c #88839A",
"h@	c #8B89A2",
"i@	c #85A8D0",
"j@	c #6C9DCE",
"k@	c #396A9D",
"l@	c #6C8C7B",
"m@	c #B2D385",
"n@	c #D8EFAA",
"o@	c #ECF0D3",
"p@	c #F3EEE4",
"q@	c #FDF4F1",
"r@	c #D3C8C7",
"s@	c #603955",
"t@	c #00006B",
"u@	c #6E99D3",
"v@	c #95C7F5",
"w@	c #A2D7F5",
"x@	c #A6E0DB",
"y@	c #A5E3AA",
"z@	c #A1DFAF",
"A@	c #9BD7DC",
"B@	c #99D6D6",
"C@	c #9CDCA4",
"D@	c #C0E5A9",
"E@	c #E9ECD7",
"F@	c #E2E5C2",
"G@	c #ABD053",
"H@	c #8BCB81",
"I@	c #96D5EB",
"J@	c #99D4FF",
"K@	c #8DC2F5",
"L@	c #73A3CF",
"M@	c #487095",
"N@	c #537BA1",
"O@	c #7BABD6",
"P@	c #6996C4",
"Q@	c #000044",
"R@	c #3B5000",
"S@	c #A9CA60",
"T@	c #D8F0AB",
"U@	c #EEF1D9",
"V@	c #F7EFED",
"W@	c #CFF09B",
"X@	c #AAC577",
"Y@	c #352E00",
"Z@	c #000071",
"`@	c #6A9392",
" #	c #9DD39C",
".#	c #AAE5BC",
"+#	c #A6DEDE",
"@#	c #A2DCD7",
"##	c #A0DEAE",
"$#	c #9DDCB1",
"%#	c #9CD7D7",
"&#	c #ACDED5",
"*#	c #C1E6A6",
"=#	c #ACCB56",
"-#	c #628600",
";#	c #4F8777",
">#	c #89C3EB",
",#	c #8BC0F2",
"'#	c #5C85B2",
")#	c #527BA3",
"!#	c #77A7D1",
"~#	c #78A7D2",
"{#	c #557CA3",
"]#	c #000154",
"^#	c #6F584D",
"/#	c #D9D0C5",
"(#	c #EEF3D6",
"_#	c #D8EFAD",
":#	c #C7EA8F",
"<#	c #CBF194",
"[#	c #B0D376",
"}#	c #6A8900",
"|#	c #123200",
"1#	c #7FAE00",
"2#	c #9BD189",
"3#	c #A2D8D8",
"4#	c #A6DECE",
"5#	c #A8E475",
"6#	c #A5E380",
"7#	c #A1DAD2",
"8#	c #A1DBD8",
"9#	c #A3E1A8",
"0#	c #8CC378",
"a#	c #4B756A",
"b#	c #40679D",
"c#	c #76A3D4",
"d#	c #78A5C3",
"e#	c #557B55",
"f#	c #5D8469",
"g#	c #81AFCC",
"h#	c #769FC7",
"i#	c #002655",
"j#	c #00004C",
"k#	c #9193A3",
"l#	c #E2DCDB",
"m#	c #F2F4DA",
"n#	c #D6F0AA",
"o#	c #C2EB83",
"p#	c #FCF8F1",
"q#	c #E5EECF",
"r#	c #B1D677",
"s#	c #6FA000",
"t#	c #152D00",
"u#	c #6E9627",
"v#	c #9CD185",
"w#	c #ACE780",
"x#	c #ACE930",
"y#	c #A9E731",
"z#	c #A7E482",
"A#	c #A6E1B4",
"B#	c #A3DDDA",
"C#	c #9AD1EA",
"D#	c #8ABBE8",
"E#	c #7099CF",
"F#	c #4C6C9C",
"G#	c #5D835B",
"H#	c #85B900",
"I#	c #87B800",
"J#	c #62876C",
"K#	c #1E335C",
"L#	c #00235B",
"M#	c #719CC9",
"N#	c #A1CCD8",
"O#	c #C5E8B3",
"P#	c #DEF4B5",
"Q#	c #EFF2D9",
"R#	c #F7F2EA",
"S#	c #FFFCFA",
"T#	c #ECF1D6",
"U#	c #B8DB7C",
"V#	c #82B700",
"W#	c #557C00",
"X#	c #395000",
"Y#	c #95C777",
"Z#	c #AEE977",
"`#	c #AEEB2E",
" $	c #ADE82C",
".$	c #ABE678",
"+$	c #A9E2B3",
"@$	c #A7DEE1",
"#$	c #A0D4F4",
"$$	c #92C1F2",
"%$	c #789FD6",
"&$	c #516C9B",
"*$	c #608454",
"=$	c #8DBF00",
"-$	c #8DBE00",
";$	c #628460",
">$	c #0C194C",
",$	c #1F3666",
"'$	c #79A4D1",
")$	c #98D0DC",
"!$	c #A6E6AF",
"~$	c #C8F0B2",
"{$	c #EEF2DE",
"]$	c #FEF3F3",
"^$	c #D7F6A7",
"/$	c #BBDA8A",
"($	c #7D9B30",
"_$	c #689300",
":$	c #88BA00",
"<$	c #74A000",
"[$	c #324070",
"}$	c #90BECF",
"|$	c #ADE4C9",
"1$	c #AEE973",
"2$	c #ACE77E",
"3$	c #A9E0CF",
"4$	c #AAE1DA",
"5$	c #ACE6B5",
"6$	c #97CB97",
"7$	c #66898E",
"8$	c #5B78AE",
"9$	c #7FA7D7",
"0$	c #80A9C1",
"a$	c #688A5A",
"b$	c #6D916B",
"c$	c #85B0C9",
"d$	c #779CC3",
"e$	c #1B2C52",
"f$	c #29426D",
"g$	c #6995B0",
"h$	c #96CFDB",
"i$	c #B5E8DB",
"j$	c #C8EFB6",
"k$	c #D0EF9C",
"l$	c #9AD400",
"m$	c #85B748",
"n$	c #587B72",
"o$	c #62866D",
"p$	c #8BBE39",
"q$	c #87B636",
"r$	c #57746C",
"s$	c #6584AD",
"t$	c #99C7E1",
"u$	c #ADE3DD",
"v$	c #AEE8AE",
"w$	c #AEE6B5",
"x$	c #AADFE0",
"y$	c #A5DAD1",
"z$	c #9CD075",
"A$	c #85B300",
"B$	c #5C7F00",
"C$	c #628279",
"D$	c #87B0D5",
"E$	c #85ADDA",
"F$	c #617FA4",
"G$	c #6685A8",
"H$	c #8AB4DC",
"I$	c #88B2DA",
"J$	c #6180A2",
"K$	c #182751",
"L$	c #19376E",
"M$	c #76A2D2",
"N$	c #96CED1",
"O$	c #A5E57C",
"P$	c #A8EE00",
"Q$	c #426D00",
"R$	c #62897E",
"S$	c #80ABD2",
"T$	c #7FA7CA",
"U$	c #63866C",
"V$	c #66877A",
"W$	c #82ABD0",
"X$	c #99CADA",
"Y$	c #AAE1B6",
"Z$	c #B0E9BA",
"`$	c #ADE3DE",
" %	c #ADE4DC",
".%	c #AFE6B5",
"+%	c #99CC7C",
"@%	c #6B8E00",
"#%	c #658A00",
"$%	c #89B900",
"%%	c #88B633",
"&%	c #688B7F",
"*%	c #6A89B4",
"=%	c #87B0DC",
"-%	c #85AED7",
";%	c #6A89AC",
">%	c #6D90B1",
",%	c #88B3DA",
"'%	c #7AA0C7",
")%	c #172C56",
"!%	c #002D6D",
"~%	c #679876",
"{%	c #96D831",
"]%	c #A7EF00",
"^%	c #31457D",
"/%	c #7FA7D8",
"(%	c #84ADD0",
"_%	c #60806E",
":%	c #63817C",
"<%	c #87AFD5",
"[%	c #9FD0DC",
"}%	c #ADE5B0",
"|%	c #ABE1B4",
"1%	c #99C9DE",
"2%	c #9CCDDC",
"3%	c #ABE2AF",
"4%	c #9BD073",
"5%	c #698E00",
"6%	c #678B00",
"7%	c #8EC000",
"8%	c #84B200",
"9%	c #3A4E00",
"0%	c #41517A",
"a%	c #85ACD7",
"b%	c #8BB4DD",
"c%	c #6887A7",
"d%	c #6A8CAD",
"e%	c #8CB7DF",
"f%	c #81AAD1",
"g%	c #2B4064",
"h%	c #566500",
"i%	c #B0D073",
"j%	c #CDF38F",
"k%	c #37497A",
"l%	c #6D927C",
"m%	c #8CBD3C",
"n%	c #88B53C",
"o%	c #65857C",
"p%	c #7599B3",
"q%	c #A0D1DD",
"r%	c #99C9D5",
"s%	c #6A88A8",
"t%	c #6F90B0",
"u%	c #9FCFDB",
"v%	c #AAE1CD",
"w%	c #9FD376",
"x%	c #8AB900",
"y%	c #6C9000",
"z%	c #3F5500",
"A%	c #485C7C",
"B%	c #7194B7",
"C%	c #8BB6DD",
"D%	c #8AB3DA",
"E%	c #6C8FB0",
"F%	c #405574",
"G%	c #796562",
"H%	c #DDD4CC",
"I%	c #FEF8EF",
"J%	c #324078",
"K%	c #000057",
"L%	c #425B00",
"M%	c #8CBB00",
"N%	c #8DBC2F",
"O%	c #63826B",
"P%	c #6381AD",
"Q%	c #89B1DF",
"R%	c #84ABD8",
"S%	c #5C75A1",
"T%	c #607AAB",
"U%	c #88B1DF",
"V%	c #9BCDD3",
"W%	c #A0D57E",
"X%	c #90C041",
"Y%	c #66866E",
"Z%	c #313866",
"`%	c #4E647F",
" &	c #8AB3D9",
".&	c #85AED3",
"+&	c #3D506C",
"@&	c #9293A6",
"#&	c #E4DDDE",
"$&	c #FFF7F5",
"%&	c #8DB8EA",
"&&	c #7092C3",
"*&	c #000048",
"=&	c #435C00",
"-&	c #6F9478",
";&	c #87B1CE",
">&	c #81A9D6",
",&	c #6581AC",
"'&	c #6886B1",
")&	c #85ADD9",
"!&	c #83AAD7",
"~&	c #6581AD",
"{&	c #526B72",
"]&	c #5A771D",
"^&	c #73967F",
"/&	c #8BB4D4",
"(&	c #7DA2CD",
"_&	c #39456B",
":&	c #080022",
"<&	c #4D6480",
"[&	c #485D7A",
"}&	c #002061",
"|&	c #6C97C8",
"1&	c #9FCAD8",
"2&	c #C3E5B3",
"3&	c #D0F296",
"4&	c #ADE3F4",
"5&	c #97C6DA",
"6&	c #607E9E",
"7&	c #3E4D75",
"8&	c #83ABD5",
"9&	c #7DA4CC",
"0&	c #323D63",
"a&	c #425577",
"b&	c #85ACD6",
"c&	c #81A7D0",
"d&	c #353E66",
"e&	c #44567A",
"f&	c #86AFD9",
"g&	c #84ACD5",
"h&	c #405070",
"i&	c #001258",
"j&	c #6087A6",
"k&	c #92C9DD",
"l&	c #B0E6DB",
"m&	c #C0ECA8",
"n&	c #C5EE7D",
"o&	c #B2ED9E",
"p&	c #A9E1BB",
"q&	c #96C4DB",
"r&	c #6D8EC1",
"s&	c #000049",
"t&	c #3B4B75",
"u&	c #3B4A6E",
"v&	c #475A79",
"w&	c #445575",
"x&	c #000009",
"y&	c #47597D",
"z&	c #485A7B",
"A&	c #00000F",
"B&	c #1B2C66",
"C&	c #719AC8",
"D&	c #91C7D6",
"E&	c #A3E1B3",
"F&	c #C4EDB1",
"G&	c #E8F1D4",
"H&	c #F5F2E3",
"I&	c #AFEA88",
"J&	c #AFEAB4",
"K&	c #ACE4E1",
"L&	c #94C3D9",
"M&	c #5D7B9C",
"N&	c #00004A",
"O&	c #323B64",
"P&	c #475980",
"Q&	c #485A81",
"R&	c #323C64",
"S&	c #131E5C",
"T&	c #6489A7",
"U&	c #95CADD",
"V&	c #A4E4D9",
"W&	c #A6E7A6",
"X&	c #CBEBB7",
"Y&	c #FBF0F4",
"Z&	c #A7DDE7",
"`&	c #AAE3D4",
" *	c #ADE9B1",
".*	c #A6DFB9",
"+*	c #93C2D9",
"@*	c #6B8EBF",
"#*	c #00003F",
"$*	c #3C496D",
"%*	c #80A6CF",
"&*	c #96C2F0",
"**	c #94C0EE",
"=*	c #7A9DC7",
"-*	c #2E355B",
";*	c #243069",
">*	c #749BCA",
",*	c #95C8D7",
"'*	c #A4E1B3",
")*	c #A5E6B0",
"!*	c #A1DFD3",
"~*	c #C6E2F2",
"{*	c #FBEDFF",
"]*	c #A1D9EF",
"^*	c #A5DFD5",
"/*	c #AAE5A6",
"(*	c #ACE7B1",
"_*	c #A8E1E0",
":*	c #91C0D8",
"<*	c #5B799C",
"[*	c #293970",
"}*	c #313E71",
"|*	c #150E4F",
"1*	c #303A60",
"2*	c #7496AE",
"3*	c #A2D5E6",
"4*	c #B6EEFD",
"5*	c #B5ECFC",
"6*	c #9FD0E1",
"7*	c #6D8EA5",
"8*	c #282B58",
"9*	c #141C5C",
"0*	c #678AAA",
"a*	c #97CBE0",
"b*	c #A8E4DC",
"c*	c #A8E8A8",
"d*	c #ABE3B7",
"e*	c #B7DEF5",
"f*	c #D1E0FF",
"g*	c #EEE8F7",
"h*	c #FAEDEE",
"i*	c #A3E193",
"j*	c #A3DFB2",
"k*	c #A3DED6",
"l*	c #A6E1D3",
"m*	c #AAE6B0",
"n*	c #A3DCB5",
"o*	c #91C1D9",
"p*	c #8AB6EC",
"q*	c #8CB8EA",
"r*	c #7193C0",
"s*	c #170A4F",
"t*	c #2E3868",
"u*	c #7EA3CC",
"v*	c #A0D3DE",
"w*	c #B3EDBD",
"x*	c #BCF8A7",
"y*	c #BAF7A9",
"z*	c #B1EAC2",
"A*	c #9ECEE0",
"B*	c #779BC5",
"C*	c #1B1B58",
"D*	c #202565",
"E*	c #7499C9",
"F*	c #96C8D9",
"G*	c #A6E2B6",
"H*	c #A8E6B4",
"I*	c #A2DFD5",
"J*	c #BCDEF3",
"K*	c #E3E4FF",
"L*	c #E9E7F5",
"M*	c #D4E7BA",
"N*	c #C5E68B",
"O*	c #C4E97D",
"P*	c #BAE4AB",
"Q*	c #A8DBDB",
"R*	c #ADDED6",
"S*	c #C2E9A5",
"T*	c #C1EBAD",
"U*	c #B1E4E1",
"V*	c #ABE2F6",
"W*	c #ACE2F6",
"X*	c #95C5D9",
"Y*	c #63839F",
"Z*	c #5F7CA9",
"`*	c #89B2DE",
" =	c #9CCCD3",
".=	c #A1D77D",
"+=	c #A3DB00",
"@=	c #A1D68B",
"#=	c #9BCBDA",
"$=	c #85ACDB",
"%=	c #5B76A3",
"&=	c #6889A8",
"*=	c #99CADE",
"==	c #ACE6D2",
"-=	c #ADEB7B",
";=	c #B0E892",
">=	c #BAE0ED",
",=	c #D2E0FF",
"'=	c #EEE8F9",
")=	c #E6EACA",
"!=	c #BAE669",
"~=	c #9BE200",
"{=	c #F5EDE1",
"]=	c #E0E9CE",
"^=	c #BAE3AB",
"/=	c #C2E5B2",
"(=	c #EAEDD5",
"_=	c #E9EFD3",
":=	c #C2ECB1",
"<=	c #ADEC9C",
"[=	c #B0EDA0",
"}=	c #A9E2BA",
"|=	c #97C6DB",
"1=	c #7FA6D6",
"2=	c #6480AC",
"3=	c #526D73",
"4=	c #567200",
"5=	c #587600",
"6=	c #547000",
"7=	c #546C7C",
"8=	c #6784B4",
"9=	c #83AAD9",
"0=	c #98C9D9",
"a=	c #ADED80",
"b=	c #ACED2C",
"c=	c #C4EA90",
"d=	c #E6E9F0",
"e=	c #EBE9F9",
"f=	c #D7E7BD",
"g=	c #BDE670",
"h=	c #A6E300",
"i=	c #96E100",
"j=	c #F3EBE1",
"k=	c #C3E87E",
"l=	c #CDE993",
"m=	c #FDF0EF",
"n=	c #FBF2E8",
"o=	c #CAEE85",
"p=	c #ACEE00",
"q=	c #AFF000",
"r=	c #B1EEA0",
"s=	c #ADE3F5",
"t=	c #8EB9EB",
"u=	c #394579",
"v=	c #475B8F",
"w=	c #93C1F3",
"x=	c #ADE4F1",
"y=	c #AFED92",
"z=	c #ADEE00",
"A=	c #ACEB00",
"B=	c #CFEB94",
"C=	c #FCEFEF",
"D=	c #F8EDEA",
"E=	c #C4E686",
"F=	c #9DE200",
"G=	c #99E100",
"H=	c #9BE100",
"  . + @ # $ % & * = - ; ; ; ; ; ; > , ' ) ! ~ { ] ^ / ( _ : < [ ",
"} | 1 2 3 4 5 6 7 8 9 0 a b c d e f g h i j k l m n o p q r s t ",
"u v w x y z A B C D E F G H I J K L M N O P Q R S T U V W X Y Z ",
"`  ...+.@.#.$.%.&.*.=.-.;.>.>.,.'.).!.~.; {.].^./.(._.:.<.[.}.|.",
"1.2.3.4.5.6.7.8.9.0.a.b.c.c.c.d.e.f.g.h.i.; j.k.l.m.n.o.p.q.r.|.",
"s.t.u.v.w.x.; y.z.A.B.C.C.D.E.F.G.H.I.J.K.L.; M.N.O.P.Q.R.S.T.U.",
"V.W.X.Y.Z.`. +.+++@+#+D.$+%+&+*+=+-+;+>+,+'+)+!+~+{+]+^+Q./+(+_+",
":+<+[+}+|+1+2+3+4+5+C.$+6+7+8+9+0+a+b+c+d+e+f+g+h+i+j+k+l+m+n+o+",
"p+q+r+s+t+u+v+w+x+y+z+A+2.B+C+D+C.E+F+G+H+I+J+K+L+M+N+O+P+Q+R+S+",
"T+U+V+W+X+Y+Z+`+ @.@+@@@#@$@%@D.&@*@=@-@;@>@,@'@)@!@~@{@]@^@/@(@",
"_@:@<@[@}@|@1@2@3@4@5@6@7@8@9@0@a@b@c@d@e@f@g@h@i@j@k@l@m@n@o@p@",
"q@r@s@t@u@v@w@x@y@z@A@B@C@D@E@F@G@H@I@J@K@L@M@N@O@P@Q@R@S@T@U@V@",
"W@X@Y@; Z@`@ #.#+#@###$#%#&#*#=#-#;#>#,#'#)#!#~#{#]#; ^#/#(#_#:#",
"<#[#}#; ; |#1#2#3#4#5#6#7#8#9#0#a#b#c#d#e#f#g#h#i#; j#k#l#m#n#o#",
"p#q#r#s#; ; t#u#v#w#x#y#z#A#B#C#D#E#F#G#H#I#J#K#; L#M#N#O#P#Q#R#",
"S#T#U#V#W#; ; X#Y#Z#`# $.$+$@$#$$$%$&$*$=$-$;$>$; ,$'$)$!$~${$]$",
"^$/$($_$:$<$; [$}$|$1$2$3$4$5$6$7$8$9$0$a$b$c$d$e$; f$g$h$i$j$k$",
"l$m$n$o$p$q$r$s$t$u$v$w$x$y$z$A$B$C$D$E$F$G$H$I$J$K$; L$M$N$O$P$",
"Q$R$S$T$U$V$W$X$Y$Z$`$ %.%+%@%#%$%%%&%*%=%-%;%>%,%'%)%; !%~%{%]%",
"; ^%/%(%_%:%<%[%}%|%1%2%3%4%5%6%7%8%9%0%a%b%c%d%e%f%g%; ; h%i%j%",
"; ; k%l%m%n%o%p%q%r%s%t%u%v%w%x%y%z%; ; A%B%C%D%E%F%; ; ; G%H%I%",
"J%K%; L%M%N%O%P%Q%R%S%T%U%V%W%X%Y%Z%; ; ; `% &.&+&; ; ; K%@&#&$&",
"%&&&*&; =&-&;&>&,&'&)&!&~&{&]&^&/&(&_&; ; :&<&[&; ; ; }&|&1&2&3&",
"4&5&6&Q@; 7&8&9&0&a&b&c&d&; ; e&f&g&h&; ; ; ; ; ; ; i&j&k&l&m&n&",
"o&p&q&r&s&; t&u&; ; v&w&; ; ; x&y&z&A&; ; ; ; ; ; B&C&D&E&F&G&H&",
"I&J&K&L&M&N&; ; ; ; ; ; ; ; O&P&Q&R&; ; ; ; ; ; S&T&U&V&W&X&Y&E+",
"Z&`& *.*+*@*#*; ; ; ; ; ; $*%*&***=*-*; ; ; ; ;*>*,*'*)*!*~*{*C.",
"]*^*/*(*_*:*<*[*}*|*; ; 1*2*3*4*5*6*7*8*; ; 9*0*a*b*c*d*e*f*g*h*",
"i*j*k*l*m*n*o*p*q*r*s*t*u*v*w*x*y*z*A*B*C*D*E*F*G*H*I*J*K*L*M*N*",
"O*P*Q*R*S*T*U*V*W*X*Y*Z*`* =.=+=+=@=#=$=%=&=*===-=;=>=,='=)=!=~=",
"{=]=^=/=(=_=:=<=[=}=|=1=2=3=4=5=5=6=7=8=9=0=k+a=b=c=d=e=f=g=h=i=",
"$+j=k=l=m=n=o=p=q=r=s=t=u=; ; ; ; ; ; v=w=x=y=z=A=B=C=D=E=F=G=H="};
