/* XPM */
static char *_698514a0aa94bbbf8562b4e64626935KPq9k8v5OeX1O2r4[] = {
/* columns rows colors chars-per-pixel */
"32 32 2 1 ",
"  c #E91E63",
". c #8BC34A",
/* pixels */
"................................",
"....  ..........................",
"...    .........................",
"..  ..  ........................",
".. ...  ..  .......  .......  ..",
".. .... ..     ...    ...... . .",
"..  ...  . ..  ..  .  .    . . .",
"...       ... ..  ..  .  . . . .",
"..... .   ... .. ...  . .. . . .",
".....  .. ...    ...   ... . . .",
"....  ... .......    . ..  .   .",
"...  ...  ........  .  .. ..   .",
"... .... ............  ..    .. ",
"... ... .............  ..  . .. ",
"....    .......... ..  ..... .. ",
"..................  . ......... ",
"..    ............. . ......... ",
"................... . ..........",
"...................  ...........",
".... ....   .......       ......",
"....  ... .......     ..    ....",
".... ...  ....... .. ..  ..  ...",
".... ... ....... ... .. ...     ",
".... ... ....... ... ....... .. ",
".... ...  ..  .. .. . ...... .. ",
".... .....   ...    .  .... ... ",
"......................          ",
"..... .............. .....   ...",
"........  .  .....     .........",
"..... .. ..   .... ...    ......",
"..... .. ...  .... ......   ....",
"..... ..    .  ... ........ ...."
};
